<svg width="105" height="35" viewBox="0 0 105 35" fill="none" xmlns="http://www.w3.org/2000/svg">
<g clip-path="url(#clip0_2183_56159)">
<path d="M96.5178 0.00011375H8.49275C8.17189 0.00011375 7.85487 0.00011375 7.53486 0.00186375C7.26698 0.00361375 7.00123 0.0086975 6.73078 0.0129762C6.14323 0.0198903 5.55706 0.0715805 4.97736 0.167598C4.39849 0.265705 3.83774 0.450665 3.31409 0.716222C2.79109 0.984026 2.3132 1.33201 1.89778 1.74755C1.48017 2.16192 1.13206 2.64088 0.866834 3.166C0.600878 3.69008 0.416463 4.25169 0.319959 4.83141C0.222537 5.4104 0.170113 5.99607 0.163159 6.58316C0.155039 6.85143 0.154181 7.1206 0.149902 7.38891V27.6139C0.154181 27.8856 0.155039 28.1488 0.163159 28.4206C0.170116 29.0076 0.222539 29.5933 0.319959 30.1722C0.416196 30.7523 0.600622 31.3142 0.866834 31.8385C1.13194 32.3619 1.4801 32.8389 1.89778 33.251C2.31163 33.6684 2.78982 34.0166 3.31409 34.2823C3.83774 34.5486 4.39842 34.7347 4.97736 34.8343C5.55716 34.9296 6.14327 34.9813 6.73078 34.989C7.00123 34.995 7.26698 34.9984 7.53486 34.9984C7.85486 35.0001 8.1719 35.0001 8.49275 35.0001H96.5178C96.8323 35.0001 97.1519 35.0001 97.4663 34.9984C97.7329 34.9984 98.0064 34.995 98.273 34.989C98.8594 34.9817 99.4444 34.93 100.023 34.8343C100.604 34.734 101.166 34.548 101.693 34.2823C102.216 34.0164 102.694 33.6682 103.108 33.251C103.524 32.8373 103.873 32.3606 104.142 31.8385C104.406 31.3138 104.588 30.7519 104.683 30.1722C104.781 29.5932 104.835 29.0077 104.846 28.4206C104.849 28.1488 104.849 27.8856 104.849 27.6139C104.856 27.296 104.856 26.9799 104.856 26.6568V8.34423C104.856 8.02379 104.856 7.70592 104.849 7.38891C104.849 7.1206 104.849 6.85143 104.846 6.58312C104.835 5.99598 104.781 5.41045 104.683 4.83137C104.588 4.25199 104.406 3.69043 104.142 3.16597C103.602 2.11341 102.745 1.25664 101.693 0.716144C101.166 0.451235 100.604 0.266324 100.023 0.167519C99.4445 0.0710787 98.8594 0.0193705 98.273 0.0128538C98.0064 0.00858375 97.7329 0.00345625 97.4663 0.00175C97.1519 0 96.8323 0.00011375 96.5178 0.00011375Z" fill="#A6A6A6"/>
<path d="M7.53916 34.2344C7.27257 34.2344 7.01241 34.231 6.74791 34.225C6.19997 34.2179 5.65331 34.1702 5.11241 34.0823C4.60805 33.9954 4.11946 33.8339 3.66276 33.6029C3.21025 33.3738 2.79752 33.0735 2.44039 32.7134C2.07809 32.3575 1.77645 31.9447 1.54744 31.4914C1.31591 31.0352 1.15567 30.5462 1.07232 30.0414C0.9823 29.499 0.933597 28.9505 0.926628 28.4007C0.921081 28.2162 0.913818 27.6018 0.913818 27.6018V7.3888C0.913818 7.3888 0.921553 6.78381 0.926672 6.60607C0.933345 6.05717 0.981764 5.50957 1.07151 4.96801C1.15502 4.46184 1.31538 3.9714 1.54704 3.51368C1.77521 3.0607 2.07517 2.64763 2.43529 2.29047C2.795 1.92992 3.20905 1.62803 3.66233 1.39581C4.11799 1.16558 4.60565 1.00514 5.10899 0.919861C5.65166 0.831107 6.20022 0.783122 6.75006 0.776309L7.53959 0.765625H97.4621L98.261 0.776738C98.8059 0.783212 99.3494 0.830769 99.8871 0.919004C100.396 1.00535 100.888 1.16691 101.349 1.39837C102.257 1.86636 102.996 2.60677 103.462 3.51581C103.69 3.97038 103.848 4.45682 103.931 4.95862C104.021 5.50462 104.072 6.05652 104.083 6.60992C104.085 6.85772 104.085 7.1239 104.085 7.3888C104.092 7.71692 104.092 8.02924 104.092 8.34411V26.6567C104.092 26.9746 104.092 27.2848 104.085 27.5975C104.085 27.882 104.085 28.1427 104.082 28.411C104.072 28.9545 104.022 29.4966 103.932 30.0328C103.851 30.5412 103.691 31.0341 103.46 31.494C103.229 31.9424 102.929 32.3516 102.571 32.7065C102.214 33.0686 101.8 33.3707 101.347 33.6012C100.887 33.834 100.395 33.9961 99.8871 34.0823C99.3463 34.1706 98.7996 34.2183 98.2516 34.225C97.9953 34.231 97.7269 34.2344 97.4664 34.2344L96.5179 34.2361L7.53916 34.2344Z" fill="black"/>
<path d="M21.8226 17.7632C21.8321 17.0328 22.026 16.3167 22.3866 15.6815C22.7471 15.0463 23.2624 14.5126 23.8846 14.1301C23.4894 13.5656 22.9679 13.101 22.3617 12.7733C21.7555 12.4455 21.0812 12.2637 20.3924 12.2421C18.923 12.0879 17.4986 13.1214 16.7498 13.1214C15.9866 13.1214 14.8338 12.2574 13.5924 12.283C12.7894 12.3089 12.0069 12.5424 11.321 12.9607C10.6351 13.379 10.0693 13.9679 9.67859 14.6699C7.98634 17.5997 9.24861 21.9057 10.8696 24.2739C11.6807 25.4336 12.6286 26.729 13.8688 26.6831C15.0825 26.6327 15.5358 25.9092 17.0008 25.9092C18.4522 25.9092 18.8775 26.6831 20.1429 26.6539C21.4453 26.6327 22.2658 25.489 23.0484 24.3184C23.6311 23.4921 24.0795 22.5788 24.377 21.6124C23.6204 21.2924 22.9747 20.7568 22.5205 20.0723C22.0662 19.3877 21.8235 18.5847 21.8226 17.7632Z" fill="white"/>
<path d="M19.4325 10.6845C20.1426 9.83211 20.4925 8.73645 20.4077 7.63025C19.3229 7.74419 18.3208 8.26268 17.6011 9.08241C17.2492 9.48286 16.9797 9.94875 16.808 10.4534C16.6363 10.9581 16.5657 11.4917 16.6004 12.0236C17.143 12.0292 17.6798 11.9116 18.1704 11.6796C18.661 11.4477 19.0925 11.1075 19.4325 10.6845Z" fill="white"/>
<path d="M37.1643 23.7472H33.0226L32.028 26.6841H30.2737L34.1967 15.8184H36.0193L39.9423 26.6841H38.1581L37.1643 23.7472ZM33.4515 22.392H36.7345L35.1161 17.6256H35.0708L33.4515 22.392Z" fill="white"/>
<path d="M48.4145 22.7235C48.4145 25.1853 47.0968 26.767 45.1084 26.767C44.6047 26.7933 44.1038 26.6773 43.663 26.4322C43.2222 26.187 42.8593 25.8227 42.6159 25.381H42.5782V29.3048H40.9521V18.7621H42.5261V20.0797H42.5561C42.8106 19.6401 43.1797 19.2776 43.6238 19.031C44.068 18.7844 44.5707 18.6628 45.0785 18.6792C47.0891 18.6792 48.4145 20.2686 48.4145 22.7235ZM46.7431 22.7235C46.7431 21.1196 45.9142 20.0652 44.6496 20.0652C43.4071 20.0652 42.5714 21.1418 42.5714 22.7235C42.5714 24.3197 43.4071 25.3887 44.6496 25.3887C45.9142 25.3887 46.7431 24.3419 46.7431 22.7235Z" fill="white"/>
<path d="M57.1337 22.7235C57.1337 25.1853 55.8161 26.767 53.8277 26.767C53.324 26.7933 52.823 26.6773 52.3822 26.4322C51.9414 26.187 51.5785 25.8227 51.3351 25.381H51.2975V29.3048H49.6714V18.7621H51.2454V20.0797H51.2753C51.5298 19.64 51.8989 19.2776 52.343 19.031C52.7872 18.7844 53.2899 18.6628 53.7977 18.6792C55.8084 18.6792 57.1337 20.2685 57.1337 22.7235ZM55.4623 22.7235C55.4623 21.1196 54.6334 20.0652 53.3688 20.0652C52.1264 20.0652 51.2907 21.1418 51.2907 22.7235C51.2907 24.3197 52.1264 25.3887 53.3688 25.3887C54.6334 25.3887 55.4623 24.3419 55.4623 22.7235Z" fill="white"/>
<path d="M62.8965 23.6567C63.017 24.7342 64.0638 25.4417 65.4942 25.4417C66.8648 25.4417 67.8509 24.7341 67.8509 23.7626C67.8509 22.9192 67.2561 22.4142 65.8479 22.0681L64.4397 21.7289C62.4445 21.247 61.5182 20.3138 61.5182 18.7997C61.5182 16.9249 63.152 15.6372 65.472 15.6372C67.768 15.6372 69.3419 16.9249 69.3949 18.7997H67.7534C67.6552 17.7153 66.7588 17.0608 65.4489 17.0608C64.1389 17.0608 63.2426 17.723 63.2426 18.6869C63.2426 19.4551 63.8151 19.9071 65.2156 20.2531L66.4127 20.5471C68.6421 21.0743 69.5684 21.9698 69.5684 23.5592C69.5684 25.592 67.9491 26.8652 65.3737 26.8652C62.964 26.8652 61.337 25.6219 61.2319 23.6566L62.8965 23.6567Z" fill="white"/>
<path d="M73.0776 16.8873V18.7621H74.5841V20.0498H73.0776V24.4171C73.0776 25.0956 73.3793 25.4117 74.0415 25.4117C74.2203 25.4086 74.3989 25.3961 74.5764 25.3741V26.6541C74.2787 26.7098 73.976 26.735 73.6732 26.7293C72.0693 26.7293 71.4438 26.1269 71.4438 24.5905V20.0498H70.292V18.7621H71.4438V16.8873H73.0776Z" fill="white"/>
<path d="M75.4568 22.7235C75.4568 20.231 76.9248 18.6647 79.214 18.6647C81.5109 18.6647 82.972 20.2309 82.972 22.7235C82.972 25.2229 81.5186 26.7823 79.214 26.7823C76.9102 26.7823 75.4568 25.2229 75.4568 22.7235ZM81.3152 22.7235C81.3152 21.0137 80.5316 20.0045 79.214 20.0045C77.8964 20.0045 77.1136 21.0214 77.1136 22.7235C77.1136 24.4402 77.8964 25.4417 79.214 25.4417C80.5316 25.4417 81.3152 24.4402 81.3152 22.7235Z" fill="white"/>
<path d="M84.3125 18.7621H85.8634V20.1105H85.901C86.006 19.6894 86.2527 19.3172 86.5997 19.0566C86.9467 18.7959 87.3729 18.6627 87.8066 18.6792C87.9939 18.6786 88.1808 18.6989 88.3637 18.7399V20.2609C88.1271 20.1886 87.8803 20.1554 87.6331 20.1626C87.3968 20.1531 87.1613 20.1947 86.9427 20.2847C86.7241 20.3748 86.5276 20.511 86.3666 20.6842C86.2056 20.8573 86.084 21.0633 86.0101 21.2879C85.9362 21.5124 85.9118 21.7504 85.9386 21.9853V26.6841H84.3125L84.3125 18.7621Z" fill="white"/>
<path d="M95.861 24.3573C95.6422 25.7954 94.2417 26.7823 92.4498 26.7823C90.1453 26.7823 88.7148 25.2383 88.7148 22.7611C88.7148 20.2762 90.1529 18.6647 92.3815 18.6647C94.5732 18.6647 95.9515 20.1703 95.9515 22.5723V23.1294H90.3563V23.2277C90.3305 23.5192 90.367 23.8129 90.4634 24.0893C90.5598 24.3656 90.7139 24.6183 90.9155 24.8306C91.117 25.0428 91.3614 25.2097 91.6325 25.3202C91.9035 25.4307 92.1949 25.4823 92.4874 25.4716C92.8717 25.5076 93.2573 25.4186 93.5869 25.2178C93.9166 25.017 94.1726 24.7152 94.3169 24.3573L95.861 24.3573ZM90.364 21.9929H94.3246C94.3392 21.7308 94.2994 21.4684 94.2078 21.2224C94.1163 20.9763 93.9748 20.7519 93.7923 20.5631C93.6099 20.3743 93.3904 20.2252 93.1476 20.1253C92.9048 20.0253 92.644 19.9767 92.3815 19.9823C92.1167 19.9807 91.8542 20.0316 91.6091 20.132C91.3641 20.2324 91.1414 20.3803 90.9538 20.5673C90.7662 20.7542 90.6176 20.9764 90.5163 21.2211C90.4151 21.4658 90.3633 21.7281 90.364 21.9929Z" fill="white"/>
<path d="M33.2479 7.63959C33.5888 7.61513 33.9309 7.66663 34.2495 7.79038C34.5681 7.91414 34.8553 8.10706 35.0903 8.35523C35.3253 8.6034 35.5023 8.90064 35.6085 9.2255C35.7148 9.55036 35.7476 9.89475 35.7046 10.2338C35.7046 11.9018 34.8031 12.8606 33.2479 12.8606H31.3621V7.63959H33.2479ZM32.173 12.1222H33.1573C33.4009 12.1368 33.6447 12.0968 33.871 12.0053C34.0972 11.9138 34.3001 11.7729 34.4651 11.5931C34.63 11.4132 34.7528 11.1988 34.8244 10.9655C34.896 10.7322 34.9147 10.4859 34.8791 10.2445C34.9121 10.004 34.8915 9.75919 34.8188 9.52761C34.7461 9.29603 34.623 9.0834 34.4585 8.90496C34.2939 8.72652 34.0919 8.58669 33.867 8.49548C33.642 8.40427 33.3997 8.36395 33.1573 8.3774H32.173V12.1222Z" fill="white"/>
<path d="M36.6206 10.8887C36.5958 10.6298 36.6255 10.3685 36.7076 10.1217C36.7897 9.87489 36.9225 9.64797 37.0974 9.45549C37.2724 9.263 37.4856 9.10921 37.7235 9.00397C37.9614 8.89872 38.2186 8.84436 38.4787 8.84436C38.7388 8.84436 38.9961 8.89872 39.2339 9.00397C39.4718 9.10921 39.685 9.263 39.86 9.45549C40.0349 9.64797 40.1677 9.87489 40.2498 10.1217C40.3319 10.3685 40.3616 10.6298 40.3368 10.8887C40.362 11.1479 40.3328 11.4095 40.2509 11.6567C40.169 11.9039 40.0363 12.1313 39.8613 12.3241C39.6863 12.517 39.4729 12.6711 39.2348 12.7766C38.9967 12.882 38.7391 12.9365 38.4787 12.9365C38.2183 12.9365 37.9607 12.882 37.7226 12.7766C37.4845 12.6711 37.2711 12.517 37.0961 12.3241C36.9211 12.1313 36.7884 11.9039 36.7065 11.6567C36.6246 11.4095 36.5954 11.1479 36.6206 10.8887ZM39.537 10.8887C39.537 10.0346 39.1533 9.53518 38.48 9.53518C37.8041 9.53518 37.4239 10.0346 37.4239 10.8887C37.4239 11.7496 37.8041 12.2452 38.48 12.2452C39.1533 12.2452 39.537 11.7462 39.537 10.8887Z" fill="white"/>
<path d="M45.2766 12.8605H44.47L43.6556 9.95861H43.5941L42.7832 12.8605H41.9843L40.8982 8.92041H41.6869L42.3927 11.9269H42.4508L43.2609 8.92041H44.0068L44.8169 11.9269H44.8784L45.5808 8.92041H46.3584L45.2766 12.8605Z" fill="white"/>
<path d="M47.2717 8.92039H48.0203V9.5463H48.0784C48.1769 9.3215 48.3432 9.13305 48.554 9.00722C48.7647 8.88138 49.0095 8.82444 49.2542 8.84433C49.4459 8.82992 49.6384 8.85882 49.8174 8.92891C49.9964 8.99899 50.1574 9.10846 50.2883 9.2492C50.4193 9.38994 50.5169 9.55834 50.574 9.74193C50.631 9.92552 50.6461 10.1196 50.6179 10.3098V12.8604H49.8403V10.505C49.8403 9.87187 49.5652 9.55699 48.9901 9.55699C48.86 9.55092 48.73 9.57308 48.6092 9.62193C48.4884 9.67078 48.3796 9.74517 48.2902 9.84001C48.2009 9.93485 48.1331 10.0479 48.0915 10.1714C48.0499 10.2949 48.0355 10.4259 48.0493 10.5555V12.8605H47.2717L47.2717 8.92039Z" fill="white"/>
<path d="M51.8569 7.38232H52.6345V12.8605H51.8569V7.38232Z" fill="white"/>
<path d="M53.7156 10.8888C53.6908 10.6298 53.7204 10.3686 53.8026 10.1217C53.8847 9.87492 54.0175 9.64799 54.1925 9.4555C54.3674 9.26301 54.5807 9.10921 54.8186 9.00397C55.0565 8.89872 55.3137 8.84436 55.5739 8.84436C55.834 8.84436 56.0912 8.89872 56.3291 9.00397C56.567 9.10921 56.7803 9.26301 56.9552 9.4555C57.1302 9.64799 57.263 9.87492 57.3452 10.1217C57.4273 10.3686 57.4569 10.6298 57.4322 10.8888C57.4574 11.148 57.4281 11.4096 57.3462 11.6568C57.2642 11.904 57.1315 12.1313 56.9565 12.3242C56.7815 12.517 56.5681 12.6712 56.33 12.7766C56.0918 12.8821 55.8343 12.9366 55.5739 12.9366C55.3134 12.9366 55.0559 12.8821 54.8178 12.7766C54.5797 12.6712 54.3662 12.517 54.1912 12.3242C54.0162 12.1313 53.8835 11.904 53.8016 11.6568C53.7196 11.4096 53.6903 11.148 53.7156 10.8888ZM56.6319 10.8888C56.6319 10.0347 56.2483 9.53525 55.5749 9.53525C54.899 9.53525 54.5188 10.0347 54.5188 10.8888C54.5188 11.7497 54.8991 12.2453 55.5749 12.2453C56.2483 12.2453 56.6319 11.7462 56.6319 10.8888Z" fill="white"/>
<path d="M58.2507 11.7462C58.2507 11.037 58.7788 10.6281 59.7162 10.57L60.7834 10.5085V10.1684C60.7834 9.75225 60.5083 9.51727 59.9768 9.51727C59.5427 9.51727 59.2419 9.67663 59.1556 9.9552H58.4028C58.4823 9.27844 59.1189 8.84436 60.0127 8.84436C61.0005 8.84436 61.5576 9.33611 61.5576 10.1684V12.8605H60.8091V12.3068H60.7476C60.6227 12.5054 60.4473 12.6673 60.2394 12.776C60.0315 12.8847 59.7984 12.9362 59.5641 12.9254C59.3987 12.9426 59.2315 12.9249 59.0733 12.8736C58.9152 12.8222 58.7695 12.7383 58.6458 12.6272C58.522 12.5161 58.423 12.3803 58.3549 12.2286C58.2869 12.0768 58.2514 11.9125 58.2507 11.7462ZM60.7834 11.4095V11.0801L59.8213 11.1417C59.2787 11.178 59.0326 11.3625 59.0326 11.7099C59.0326 12.0645 59.3402 12.2709 59.7632 12.2709C59.8871 12.2834 60.0123 12.2709 60.1313 12.2341C60.2504 12.1972 60.3607 12.1368 60.4559 12.0565C60.5511 11.9761 60.6292 11.8774 60.6854 11.7663C60.7417 11.6551 60.775 11.5338 60.7834 11.4095Z" fill="white"/>
<path d="M62.5796 10.8887C62.5796 9.64375 63.2196 8.85505 64.2151 8.85505C64.4613 8.84371 64.7057 8.90269 64.9197 9.02509C65.1336 9.1475 65.3083 9.32828 65.4233 9.5463H65.4815V7.38232H66.259V12.8605H65.5139V12.238H65.4524C65.3285 12.4545 65.1477 12.6331 64.9296 12.7542C64.7115 12.8754 64.4644 12.9346 64.2151 12.9254C63.2128 12.9254 62.5796 12.1367 62.5796 10.8887ZM63.3828 10.8887C63.3828 11.7244 63.7768 12.2273 64.4356 12.2273C65.091 12.2273 65.496 11.7172 65.496 10.8922C65.496 10.071 65.0867 9.5536 64.4356 9.5536C63.781 9.5536 63.3828 10.0599 63.3828 10.8887Z" fill="white"/>
<path d="M69.4763 10.8887C69.4515 10.6298 69.4812 10.3685 69.5633 10.1217C69.6454 9.87489 69.7782 9.64797 69.9531 9.45549C70.1281 9.263 70.3413 9.10921 70.5792 9.00397C70.8171 8.89872 71.0743 8.84436 71.3344 8.84436C71.5945 8.84436 71.8518 8.89872 72.0896 9.00397C72.3275 9.10921 72.5407 9.263 72.7157 9.45549C72.8906 9.64797 73.0234 9.87489 73.1055 10.1217C73.1877 10.3685 73.2173 10.6298 73.1925 10.8887C73.2177 11.1479 73.1885 11.4095 73.1066 11.6567C73.0247 11.9039 72.892 12.1313 72.717 12.3241C72.542 12.517 72.3286 12.6711 72.0905 12.7766C71.8524 12.882 71.5948 12.9365 71.3344 12.9365C71.074 12.9365 70.8164 12.882 70.5783 12.7766C70.3402 12.6711 70.1268 12.517 69.9518 12.3241C69.7768 12.1313 69.6441 11.9039 69.5622 11.6567C69.4803 11.4095 69.4511 11.1479 69.4763 10.8887ZM72.3927 10.8887C72.3927 10.0346 72.009 9.53518 71.3357 9.53518C70.6598 9.53518 70.2796 10.0346 70.2796 10.8887C70.2796 11.7496 70.6598 12.2452 71.3357 12.2452C72.009 12.2452 72.3927 11.7462 72.3927 10.8887Z" fill="white"/>
<path d="M74.2358 8.92039H74.9844V9.5463H75.0425C75.1411 9.3215 75.3073 9.13305 75.5181 9.00722C75.7288 8.88138 75.9736 8.82444 76.2183 8.84433C76.41 8.82992 76.6025 8.85882 76.7815 8.92891C76.9605 8.99899 77.1215 9.10846 77.2525 9.2492C77.3834 9.38994 77.4811 9.55834 77.5381 9.74193C77.5952 9.92552 77.6102 10.1196 77.582 10.3098V12.8604H76.8045V10.505C76.8045 9.87187 76.5293 9.55699 75.9542 9.55699C75.8241 9.55092 75.6941 9.57308 75.5733 9.62193C75.4525 9.67078 75.3437 9.74517 75.2544 9.84001C75.165 9.93485 75.0972 10.0479 75.0556 10.1714C75.014 10.2949 74.9996 10.4259 75.0134 10.5555V12.8605H74.2358V8.92039Z" fill="white"/>
<path d="M81.9757 7.93945V8.93835H82.8294V9.59333H81.9757V11.6193C81.9757 12.032 82.1458 12.2128 82.5328 12.2128C82.6319 12.2125 82.7309 12.2065 82.8294 12.1948V12.8425C82.6897 12.8675 82.5482 12.8808 82.4064 12.8823C81.5416 12.8823 81.1973 12.5781 81.1973 11.8184V9.59329H80.5718V8.93832H81.1973V7.93945H81.9757Z" fill="white"/>
<path d="M83.8916 7.38232H84.6624V9.55359H84.7239C84.8272 9.32669 84.9981 9.13717 85.213 9.01087C85.428 8.88456 85.6767 8.82761 85.9252 8.84778C86.116 8.8374 86.3066 8.86925 86.4836 8.94103C86.6606 9.01282 86.8196 9.12278 86.9492 9.26308C87.0788 9.40337 87.1758 9.57054 87.2334 9.75266C87.291 9.93478 87.3076 10.1274 87.2822 10.3167V12.8605H86.5038V10.5085C86.5038 9.87915 86.2107 9.56042 85.6613 9.56042C85.5276 9.54946 85.3932 9.56783 85.2674 9.61425C85.1416 9.66067 85.0275 9.73402 84.933 9.82917C84.8385 9.92431 84.7659 10.039 84.7204 10.1651C84.6748 10.2912 84.6573 10.4257 84.6692 10.5593V12.8605H83.8916L83.8916 7.38232Z" fill="white"/>
<path d="M91.8161 11.7967C91.7105 12.1568 91.4816 12.4683 91.1695 12.6767C90.8574 12.885 90.4819 12.977 90.1088 12.9366C89.8493 12.9434 89.5913 12.8937 89.3529 12.7909C89.1144 12.688 88.9012 12.5345 88.728 12.3411C88.5549 12.1476 88.4259 11.9187 88.35 11.6704C88.2742 11.422 88.2533 11.1601 88.2888 10.9029C88.2542 10.6449 88.2755 10.3824 88.3512 10.1333C88.4268 9.88426 88.5551 9.65434 88.7274 9.45915C88.8997 9.26396 89.1118 9.10806 89.3496 9.002C89.5873 8.89594 89.8451 8.84221 90.1054 8.84443C91.2017 8.84443 91.8631 9.59343 91.8631 10.8307V11.102H89.0809V11.1456C89.0687 11.2902 89.0869 11.4357 89.1342 11.5729C89.1816 11.71 89.2571 11.8358 89.3559 11.942C89.4547 12.0483 89.5746 12.1328 89.7079 12.19C89.8413 12.2472 89.9851 12.2759 90.1302 12.2743C90.3162 12.2967 90.5046 12.2632 90.6716 12.1781C90.8385 12.0931 90.9763 11.9603 91.0676 11.7967L91.8161 11.7967ZM89.0809 10.5269H91.071C91.0808 10.3947 91.0628 10.2619 91.0182 10.137C90.9736 10.0121 90.9034 9.89793 90.8121 9.80181C90.7207 9.70568 90.6103 9.62973 90.4879 9.57882C90.3654 9.52792 90.2337 9.50319 90.1011 9.50623C89.9666 9.50454 89.8332 9.52979 89.7086 9.58049C89.584 9.6312 89.4709 9.70632 89.3758 9.80145C89.2807 9.89657 89.2056 10.0098 89.155 10.1344C89.1043 10.259 89.0791 10.3924 89.0809 10.5269Z" fill="white"/>
</g>
<defs>
<clipPath id="clip0_2183_56159">
<rect width="104.706" height="35" fill="white" transform="translate(0.149902)"/>
</clipPath>
</defs>
</svg>
