<?xml version="1.0" encoding="UTF-8"?>
<svg id="Layer_1" xmlns="http://www.w3.org/2000/svg" version="1.1" viewBox="0 0 210 50">
  <!-- Generator: Adobe Illustrator 29.8.2, SVG Export Plug-In . SVG Version: 2.1.1 Build 3)  -->
  <defs>
    <style>
      .st0 {
        fill: #bd8839;
      }
    </style>
  </defs>
  <g>
    <path class="st0" d="M46.3,29.6c-.7-.5-1.5-.8-2.3-.8-1.6,0-2.6,1.4-2.6,3.8s1.1,3.8,2.8,3.8,1.6-.4,2.4-1.3l-.3,1.1c-.7.6-1.6.9-2.5.9-2.2,0-3.9-1.9-3.9-4.4s1.8-4.5,4.1-4.5.8,0,1.3.1c.2,0,.3,0,.4,0h.2c0,0,.1,0,.2,0s0,0,.1,0v1.1Z"/>
    <path class="st0" d="M47.3,34c0-1.9,1.2-3.2,2.9-3.2s2.8,1.2,2.8,3.1-1.2,3.3-2.9,3.3-2.7-1.1-2.8-2.8c0,0,0-.2,0-.3ZM48.6,33.3c0,.1,0,.2,0,.3,0,1.8.7,3,1.6,3s1.4-.9,1.4-2.5-.6-2.8-1.6-2.8-1.3.7-1.5,2Z"/>
    <path class="st0" d="M54.2,37c0-.3,0-.4,0-.8,0-.2,0-.4,0-.4v-3.6c0-.1,0-.2,0-.4v-.4c0,0,0-.2,0-.4h1.3v.7c.5-.6,1.2-.9,1.9-.9s1.1.2,1.4.6c.3.3.3.6.3,1.4s0,.4,0,.6c0,.2,0,.6,0,1.3v.9h0c0,.1,0,.3,0,.6,0,.5,0,.5,0,.8h-1.3v-3.6c0-.6,0-.9,0-1s0-.1,0-.2c-.1-.4-.5-.6-1-.6s-.8.2-1.1.5c-.3.3-.3.4-.3,1.4v2.1h0v.6c0,.4,0,.5,0,.8h-1.4Z"/>
    <path class="st0" d="M64.2,29.7h0c0-.1,0-.5,0-.5v-.4c0,0,0-.2,0-.4h1.2v7.3s0,0,0,.2v.4c0,.4,0,.5,0,.8h-1.3v-.9c-.4.7-.9,1-1.6,1-1.3,0-2.2-1.2-2.2-3s1.1-3.3,2.7-3.3.7,0,1.2.3v-1.4ZM61.6,33.8h0c-.1,1.6.5,2.5,1.4,2.5s.8-.3,1-.6c.2-.3.2-.6.2-1.2h0v-1.6c0-.7,0-.9-.2-1.1-.2-.3-.5-.4-.9-.4-.9,0-1.3.9-1.5,2.5Z"/>
    <path class="st0" d="M71.3,36.2c-.6.6-1.3.9-2,.9-1.6,0-2.7-1.2-2.7-3s1.1-3.2,2.7-3.2,2.2,1,2.2,2-.1.3-.4.3h-3.2c0,.3,0,.5,0,.7,0,1.5.6,2.4,1.8,2.4s1.3-.3,1.8-.8l-.2.8ZM68,32.7h1.5c.5,0,.7-.1.7-.5s-.4-.9-.9-.9-1.1.6-1.3,1.4ZM69.1,30.6l.5-1.7h1.4l-1.8,1.7Z"/>
    <path class="st0" d="M77.3,28.4l4.8,6.5v-5.4c0-.5,0-.7-.1-1.1h1c0,.5-.1.8-.1,1.1h0v7.5h-.9l-5.2-7v5.9c0,.4,0,.6.2,1.1h-1c.1-.5.2-.7.2-1.4v-.4s0-5.2,0-5.2c0-.5,0-.6,0-1.1,0-.3,0-.4-.2-.6h1.5Z"/>
    <path class="st0" d="M87.4,36.2c-.4.6-1,.9-1.7.9s-1.5-.6-1.5-1.4.4-1.1,1.2-1.5l.8-.4c.5-.3.9-.5,1-.7,0-.1.1-.3.1-.6s0-.6,0-.8c0-.4-.4-.6-.9-.6s-.8.2-.8.5v.4c-.1.3-.4.5-.7.5s-.6-.2-.6-.5c0-.7,1.1-1.3,2.3-1.3s.9,0,1.3.2c.5.2.7.5.7,1.3h0v3.2h0v.2s0,.2,0,.4c0,.4,0,.5,0,.8h-1.3v-.8ZM87.4,33.6c-.3.2-.5.3-.9.6-.6.3-.8.5-.9.8,0,.2-.1.4-.1.5,0,.5.3.9.8.9s.8-.2,1-.6c0-.2.1-.2.1-.6v-1.6Z"/>
    <path class="st0" d="M89.6,35.9c.2.1.2.2.4.3.4.3,1.1.5,1.5.5s1-.4,1-.9,0-.3,0-.5c0-.1-.1-.2-.3-.3-.2-.2-.3-.3-1-.7-1.1-.6-1.4-1.1-1.4-1.8,0-1,.9-1.7,2.1-1.7s.4,0,.9.1c.3,0,.4,0,.5,0s0,0,.2,0l.2.9c-.5-.3-1.2-.6-1.6-.6s-.9.3-.9.8.3.8,1.2,1.3c.8.4.9.5,1.1.8.3.3.4.7.4,1.1,0,1.1-.9,1.9-2.4,1.9s-1,0-1.6-.3l-.2-1Z"/>
    <path class="st0" d="M94.2,31.5v-.5h.7v-1.4l1.2-.4v1.7s1,0,1,0v.5h-1v3.8h0v.3c0,.1,0,.2,0,.3,0,.3.3.5.6.5s.4,0,.6-.3v.7c-.3.2-.9.4-1.3.4-.8,0-1.2-.4-1.2-1.2h0s0-.6,0-.6v-3.9h-.7Z"/>
    <path class="st0" d="M100.8,28.4h6.9v.8s-.1,0-.2,0c-.5-.1-1.1-.2-1.5-.2h-1v6.7c0,.5,0,.9.1,1.4h-1.6c.1-.5.2-.9.2-1.4v-6.7h-1c-.5,0-1.2.1-1.9.3v-.8Z"/>
    <path class="st0" d="M107,37c0-.3,0-.5.1-.8v-.4s0-.2,0-.2v-3.8c0-.2,0-.3,0-.4,0-.1,0-.2,0-.4h1.3v.9c.4-.6,1-1.1,1.5-1.1h.1c0,.3,0,.4-.1.7,0,.3,0,.4,0,.8-.3-.2-.5-.3-.7-.3-.4,0-.7.5-.7,1.3v2.4h0c0,.2,0,.3,0,.6,0,.2,0,.3,0,.3,0,.2,0,.3,0,.5h-1.4Z"/>
    <path class="st0" d="M113.3,36.2c-.4.6-1,.9-1.7.9s-1.5-.6-1.5-1.4.4-1.1,1.2-1.5l.8-.4c.5-.3.9-.5,1-.7,0-.1.1-.3.1-.6s0-.6,0-.8c0-.4-.4-.6-.9-.6s-.8.2-.8.5v.4c-.1.3-.4.5-.7.5s-.6-.2-.6-.5c0-.7,1.1-1.3,2.3-1.3s.9,0,1.3.2c.5.2.7.5.7,1.3h0v3.2h0v.2s0,.2,0,.4c0,.4,0,.5,0,.8h-1.3v-.8ZM113.3,33.6c-.3.2-.5.3-.9.6-.6.3-.8.5-.9.8,0,.2-.1.4-.1.5,0,.5.3.9.8.9s.8-.2,1-.6c0-.2.1-.2.1-.6v-1.6Z"/>
    <path class="st0" d="M116.7,30.9v.2c0,.2,0,.3.1.6,0,.2.1.3.1.4v.2s1.3,3.3,1.3,3.3l1.2-3.3c.2-.4.2-.8.2-1s0-.2,0-.4h1.1c-.1.3-.2.4-.3.5v.3c-.2.2-.3.3-.3.4h0c0,.1-1.7,4.8-1.7,4.8h-.9l-1.8-4.7h0c0-.2,0-.3-.2-.6v-.3c-.2-.2-.3-.3-.4-.5h1.6Z"/>
    <path class="st0" d="M125.6,36.2c-.6.6-1.3.9-2,.9-1.6,0-2.7-1.2-2.7-3s1.1-3.2,2.7-3.2,2.2,1,2.2,2-.1.3-.4.3h-3.2c0,.3,0,.5,0,.7,0,1.5.6,2.4,1.8,2.4s1.3-.3,1.8-.8l-.2.8ZM122.3,32.7h1.5c.5,0,.7-.1.7-.5s-.4-.9-.9-.9-1.1.6-1.3,1.4Z"/>
    <path class="st0" d="M128.1,28.4v7.3c0,0,0,.2,0,.6,0,.3,0,.3,0,.4,0,.1,0,.2,0,.4h-1.4c0-.2,0-.3,0-.4s0-.2,0-.4,0-.3,0-.4v-6.3h0v-.4c0-.4,0-.5,0-.8h1.3Z"/>
    <path class="st0" d="M134,36.2c-.6.6-1.3.9-2,.9-1.6,0-2.7-1.2-2.7-3s1.1-3.2,2.7-3.2,2.2,1,2.2,2-.1.3-.4.3h-3.2c0,.3,0,.5,0,.7,0,1.5.6,2.4,1.8,2.4s1.3-.3,1.8-.8l-.2.8ZM130.7,32.7h1.5c.5,0,.7-.1.7-.5s-.4-.9-.9-.9-1.1.6-1.3,1.4Z"/>
    <path class="st0" d="M135.2,37c0-.3,0-.5.1-.8v-.4s0-.2,0-.2v-3.8c0-.2,0-.3,0-.4,0-.1,0-.2,0-.4h1.3v.9c.4-.6,1-1.1,1.5-1.1h.1c0,.3,0,.4-.1.7,0,.3,0,.4,0,.8-.3-.2-.5-.3-.7-.3-.4,0-.7.5-.7,1.3v2.4h0c0,.2,0,.3,0,.6,0,.2,0,.3,0,.3,0,.2,0,.3,0,.5h-1.4Z"/>
    <path class="st0" d="M144.3,28.5c-.7,1.1-1,2.6-1,4.2s.4,3.2,1,4.2c.2.3.3.5.7,1-1.8-.9-3-3-3-5.2s1.2-4.2,3-5.2c-.4.5-.5.7-.7,1Z"/>
    <path class="st0" d="M147.2,28.4c0,.3,0,.4,0,.6,0,.2,0,.5,0,.7v.6s0,4.4,0,4.4c0,1.2.6,1.8,1.8,1.8s1.3-.3,1.7-.7c.3-.4.4-.7.4-1.5v-4.7c0-.4,0-.7-.1-1.1h1.6c0,.4,0,.6,0,1.1v6.4c0,.5,0,.7.1,1.1h-1.5v-1c-.7.8-1.7,1.2-2.9,1.2s-1.6-.3-2-.8c-.3-.4-.4-.6-.4-1.6v-5.3c0-.4,0-.7-.1-1.1h1.6Z"/>
    <path class="st0" d="M153.7,35.7c.7.6,1.5.9,2.3.9s1.8-.6,1.8-1.5,0-.4-.1-.6c-.2-.3-.3-.5-1-.9l-.6-.4h-.2c0-.1-.8-.6-.8-.6-.8-.5-1.3-1.2-1.3-2,0-1.4,1.2-2.3,2.9-2.3s.9,0,1.4.2h.4c.1.1.2.1.4.1v1c-.6-.5-1.3-.8-2-.8s-1.6.6-1.6,1.4,0,.4.2.6c.2.4.6.7,1.6,1.2.4.2.7.4.9.5.3.1.5.3.7.5.4.4.7.9.7,1.5,0,1.5-1.4,2.6-3.2,2.6s-1.3-.2-2.3-.6v-.9Z"/>
    <path class="st0" d="M159.2,37c.3-.4.3-.5.6-1.1.2-.4.2-.5.3-.7l.5-1.1c.6-1.4,1.1-2.9,1.5-3.8.3-.7.3-1,.3-1.3s0-.4-.1-.6h1.5l1.5,3.4.4.9c.6,1.4.9,2.1,1,2.3.4.8.6,1.3,1.1,2h-1.9c0-.3,0-.4-.1-.5,0-.2-.2-.7-.4-1.1h0c0,0,0-.2,0-.2l-.9-2h-2.7l-.7,2c-.2.6-.4,1.1-.4,1.4s0,.2,0,.4h-1.3ZM162.8,29.7l-1.1,3h2.3l-1.2-3Z"/>
    <path class="st0" d="M167.8,36.9c.7-1.1,1-2.6,1-4.2s-.4-3.2-1-4.2c-.2-.3-.3-.5-.7-1,1.8,1,3,3,3,5.2s-1.2,4.2-3,5.2c.4-.5.6-.7.7-1Z"/>
    <path class="st0" d="M32.5,39.4c.1,0,.5,0,.9,0,.5,0,.8,0,1,0,1.4,0,2.3.8,2.3,1.9s-.8,2.1-2.3,2.4l2,2.6c.2.2.4.5.6.7.3.3.6.5.9.7.2.1.3.2.6.4h-1c-.8,0-.9,0-1.2-.2-.2-.1-.6-.5-.9-.8l-1.7-2.1-.3-.4c-.2-.3-.3-.4-.7-.6v3c0,.5,0,.7.2,1.1h-1.7c0-.3,0-.4.1-.5,0-.2,0-.7,0-1h0v-5.4c0,0,0-.2,0-.3,0-.5,0-.5,0-.8,0-.2,0-.3-.1-.6h1.3ZM32.8,43.3c.1,0,.2,0,.3,0,1.3,0,2.2-.8,2.2-2s-.6-1.6-1.5-1.6-.6,0-1,0v3.5Z"/>
    <path class="st0" d="M43,47.2c-.6.6-1.3.9-2,.9-1.6,0-2.7-1.2-2.7-3s1.1-3.2,2.7-3.2,2.2,1,2.2,2-.1.3-.4.3h-3.2c0,.3,0,.5,0,.7,0,1.5.6,2.4,1.8,2.4s1.3-.3,1.8-.8l-.2.8ZM39.7,43.7h1.5c.5,0,.7-.1.7-.5s-.4-.9-.9-.9-1.1.6-1.3,1.4Z"/>
    <path class="st0" d="M47.2,47.2c-.4.6-1,.9-1.7.9s-1.5-.6-1.5-1.4.4-1.1,1.2-1.5l.8-.4c.5-.3.9-.5,1-.7,0-.1.1-.3.1-.6s0-.6,0-.8c0-.4-.4-.6-.9-.6s-.8.2-.8.5v.4c-.1.3-.4.5-.7.5s-.6-.2-.6-.5c0-.7,1.1-1.3,2.3-1.3s.9,0,1.3.2c.5.2.7.5.7,1.3h0v3.2h0v.2s0,.2,0,.4c0,.4,0,.5,0,.8h-1.3v-.8ZM47.2,44.6c-.3.2-.5.3-.9.6-.6.3-.8.5-.9.8,0,.2-.1.4-.1.5,0,.5.3.9.8.9s.8-.2,1-.6c0-.2.1-.2.1-.6v-1.6Z"/>
    <path class="st0" d="M53.5,40.7h0c0-.1,0-.5,0-.5v-.4c0,0,0-.2,0-.4h1.2v7.3s0,0,0,.2v.4c0,.4,0,.5,0,.8h-1.3v-.9c-.4.7-.9,1-1.6,1-1.3,0-2.2-1.2-2.2-3s1.1-3.3,2.7-3.3.7,0,1.2.3v-1.4ZM51,44.8h0c-.1,1.6.5,2.5,1.4,2.5s.8-.3,1-.6c.2-.3.2-.6.2-1.2h0v-1.6c0-.7,0-.9-.2-1.1-.2-.3-.5-.4-.9-.4-.9,0-1.3.9-1.5,2.5Z"/>
    <path class="st0" d="M60.6,47.2c-.6.6-1.3.9-2,.9-1.6,0-2.7-1.2-2.7-3s1.1-3.2,2.7-3.2,2.2,1,2.2,2-.1.3-.4.3h-3.2c0,.3,0,.5,0,.7,0,1.5.6,2.4,1.8,2.4s1.3-.3,1.8-.8l-.2.8ZM57.4,43.7h1.5c.5,0,.7-.1.7-.5s-.4-.9-.9-.9-1.1.6-1.3,1.4Z"/>
    <path class="st0" d="M61.9,48c0-.3,0-.5.1-.8v-.4s0-.2,0-.2v-3.8c0-.2,0-.3,0-.4,0-.1,0-.2,0-.4h1.3v.9c.4-.6,1-1.1,1.5-1.1h.1c0,.3,0,.4-.1.7,0,.3,0,.4,0,.8-.3-.2-.5-.3-.7-.3-.4,0-.7.5-.7,1.3v2.4h0c0,.2,0,.3,0,.6,0,.2,0,.3,0,.3,0,.2,0,.3,0,.5h-1.4Z"/>
    <path class="st0" d="M64.9,46.9c.2.1.2.2.4.3.4.3,1.1.5,1.5.5s1-.4,1-.9,0-.3,0-.5c0-.1-.1-.2-.3-.3-.2-.2-.3-.3-1-.7-1.1-.6-1.4-1.1-1.4-1.8,0-1,.9-1.7,2.1-1.7s.4,0,.9.1c.3,0,.4,0,.5,0s0,0,.2,0l.2.9c-.5-.3-1.2-.6-1.6-.6s-.9.3-.9.8.3.8,1.2,1.3c.8.4.9.5,1.1.8.3.3.4.7.4,1.1,0,1.1-.9,1.9-2.4,1.9s-1,0-1.6-.3l-.2-1Z"/>
    <path class="st0" d="M69.9,41.9c.1-.2.2-.4.3-.5,0-.1,0-.2,0-.4,0-.4-.2-.6-.5-.9l.9-1,1,1c-.1.6-.3.9-.6,1.3-.2.2-.4.4-.6.6-.3.2-.4.3-.8.5.1-.2.3-.4.3-.6Z"/>
    <path class="st0" d="M82.3,40.6c-.7-.5-1.5-.8-2.3-.8-1.6,0-2.6,1.4-2.6,3.8s1.1,3.8,2.8,3.8,1.6-.4,2.4-1.3l-.3,1.1c-.7.6-1.6.9-2.5.9-2.2,0-3.9-1.9-3.9-4.4s1.8-4.5,4.1-4.5.8,0,1.3.1c.2,0,.3,0,.4,0h.2c0,0,.1,0,.2,0s0,0,.1,0v1.1Z"/>
    <path class="st0" d="M83.5,48c0-.3,0-.4,0-.8v-.4h0v-6.1h0v-.5c0-.4,0-.5,0-.8h1.3v3.3c.6-.6,1.2-.9,1.9-.9s1.7.6,1.7,1.4v3.4h0v.6c0,.4,0,.5.1.8h-1.3v-3.9h0s0-.5,0-.5c0-.6-.4-1-1-1s-.8.2-1.1.4c-.2.2-.3.4-.3.6,0,0,0,.1,0,.5v2.5h0s0,.2,0,.2v.4c0,.3,0,.3,0,.4,0,.1,0,.2,0,.4h-1.4Z"/>
    <path class="st0" d="M89.6,45c0-1.9,1.2-3.2,2.9-3.2s2.8,1.2,2.8,3.1-1.2,3.3-2.9,3.3-2.7-1.1-2.8-2.8c0,0,0-.2,0-.3ZM91,44.3c0,.1,0,.2,0,.3,0,1.8.7,3,1.6,3s1.4-.9,1.4-2.5-.6-2.8-1.6-2.8-1.3.7-1.5,2Z"/>
    <path class="st0" d="M97.2,39.7c.4,0,.8.3.8.8s-.3.7-.8.7-.8-.3-.8-.8.4-.7.8-.7ZM96.4,48c0-.2,0-.3,0-.4,0,0,0-.2,0-.4v-.4h0v-4.4c0-.1,0-.2,0-.4h1.3v4.7h0v.2h0v.4c0,.5,0,.5,0,.8h-1.4Z"/>
    <path class="st0" d="M103,42v.9c-.3-.3-.7-.5-1.2-.5-1,0-1.6.9-1.6,2.4s.6,2.4,1.7,2.4.7,0,1-.3c.1,0,.2-.1.4-.3l-.2.8c-.5.4-1.1.6-1.6.6-1.5,0-2.5-1.3-2.5-3.1s1.1-3.2,2.6-3.2.7,0,1,.1c.2,0,.2,0,.3,0h.2Z"/>
    <path class="st0" d="M108.6,47.2c-.6.6-1.3.9-2,.9-1.6,0-2.7-1.2-2.7-3s1.1-3.2,2.7-3.2,2.2,1,2.2,2-.1.3-.4.3h-3.2c0,.3,0,.5,0,.7,0,1.5.6,2.4,1.8,2.4s1.3-.3,1.8-.8l-.2.8ZM105.4,43.7h1.5c.5,0,.7-.1.7-.5s-.4-.9-.9-.9-1.1.6-1.3,1.4Z"/>
    <path class="st0" d="M112.5,48c.3-.4.3-.5.6-1.1.2-.4.2-.5.3-.7l.5-1.1c.6-1.4,1.1-2.9,1.5-3.8.3-.7.3-1,.3-1.3s0-.4-.1-.6h1.5l1.5,3.4.4.9c.6,1.4.9,2.1,1,2.3.4.8.6,1.3,1.1,2h-1.9c0-.3,0-.4-.1-.5,0-.2-.2-.7-.4-1.1h0c0,0,0-.2,0-.2l-.9-2h-2.7l-.7,2c-.2.6-.4,1.1-.4,1.4s0,.2,0,.4h-1.3ZM116.1,40.7l-1.1,3h2.3l-1.2-3Z"/>
    <path class="st0" d="M121.7,41.9c0,.2,0,.3,0,.4,0,0,0,0,0,0s0,.1,0,.4v.4c.1,0,.1.1.1.1l1,3.4,1-3.4c0-.6,0-.9-.3-1.3h0s1.7,0,1.7,0c0,.1-.1.3-.1.5s0,.3.1.7l1,3.6,1-3.4h0c0-.1,0-.2,0-.2,0,0,0-.2,0-.4,0-.2,0-.4,0-.5s0-.2,0-.4h1c0,.2-.2.3-.2.4,0,0,0,.2-.2.4,0,.2-.1.3-.1.4h0c0,0,0,.2,0,.2l-1.5,4.7h-1.1l-1.2-4.2-1.2,4.2h-1.1l-1.3-4.7h0c0-.2,0-.3-.1-.6-.1-.4-.2-.5-.3-.8h1.4Z"/>
    <path class="st0" d="M131.9,47.2c-.4.6-1,.9-1.7.9s-1.5-.6-1.5-1.4.4-1.1,1.2-1.5l.8-.4c.5-.3.9-.5,1-.7,0-.1.1-.3.1-.6s0-.6,0-.8c0-.4-.4-.6-.9-.6s-.8.2-.8.5v.4c-.1.3-.4.5-.7.5s-.6-.2-.6-.5c0-.7,1.1-1.3,2.3-1.3s.9,0,1.3.2c.5.2.7.5.7,1.3h0v3.2h0v.2s0,.2,0,.4c0,.4,0,.5,0,.8h-1.3v-.8ZM131.9,44.6c-.3.2-.5.3-.9.6-.6.3-.8.5-.9.8,0,.2-.1.4-.1.5,0,.5.3.9.8.9s.8-.2,1-.6c0-.2.1-.2.1-.6v-1.6Z"/>
    <path class="st0" d="M134.4,48c0-.3,0-.5.1-.8v-.4s0-.2,0-.2v-3.8c0-.2,0-.3,0-.4,0-.1,0-.2,0-.4h1.3v.9c.4-.6,1-1.1,1.5-1.1h.1c0,.3,0,.4-.1.7,0,.3,0,.4,0,.8-.3-.2-.5-.3-.7-.3-.4,0-.7.5-.7,1.3v2.4h0c0,.2,0,.3,0,.6,0,.2,0,.3,0,.3,0,.2,0,.3,0,.5h-1.4Z"/>
    <path class="st0" d="M141.4,40.7h0c0-.1,0-.5,0-.5v-.4c0,0,0-.2,0-.4h1.2v7.3s0,0,0,.2v.4c0,.4,0,.5,0,.8h-1.3v-.9c-.4.7-.9,1-1.6,1-1.3,0-2.2-1.2-2.2-3s1.1-3.3,2.7-3.3.7,0,1.2.3v-1.4ZM138.8,44.8h0c-.1,1.6.5,2.5,1.4,2.5s.8-.3,1-.6c.2-.3.2-.6.2-1.2h0v-1.6c0-.7,0-.9-.2-1.1-.2-.3-.5-.4-.9-.4-.9,0-1.3.9-1.5,2.5Z"/>
    <path class="st0" d="M143.6,46.9c.2.1.2.2.4.3.4.3,1.1.5,1.5.5s1-.4,1-.9,0-.3,0-.5c0-.1-.1-.2-.3-.3-.2-.2-.3-.3-1-.7-1.1-.6-1.4-1.1-1.4-1.8,0-1,.9-1.7,2.1-1.7s.4,0,.9.1c.3,0,.4,0,.5,0s0,0,.2,0l.2.9c-.5-.3-1.2-.6-1.6-.6s-.9.3-.9.8.3.8,1.2,1.3c.8.4.9.5,1.1.8.3.3.4.7.4,1.1,0,1.1-.9,1.9-2.4,1.9s-1,0-1.6-.3l-.2-1Z"/>
    <path class="st0" d="M152,48c.1-.2.2-.3.3-.4.5-.6,1-1.2,1.4-1.6.9-1.2,1.7-2.3,2.1-3,.3-.5.4-1,.4-1.4,0-.9-.5-1.5-1.4-1.5s-1.3.3-1.9,1v-1.2c.9-.4,1.6-.7,2.4-.7,1.4,0,2.3.8,2.3,2s-.2,1.2-.8,2c-.3.5-.7,1-1.1,1.5-.5.6-1.1,1.3-1.5,1.8l-.3.4h2.4c.8,0,1.3-.2,1.8-.6l-.4,1.7h-5.6Z"/>
    <path class="st0" d="M162.2,39.2c1.2,0,2,.6,2.5,1.6.3.7.4,1.5.4,2.7s0,1.2-.1,1.8c-.3,1.8-1.3,2.9-2.9,2.9s-2-.6-2.5-1.5c-.3-.7-.5-1.6-.5-2.9,0-3.1,1-4.7,3.1-4.7ZM160.5,43.7h0c0,2.7.5,3.9,1.6,3.9s1.6-1.2,1.6-4-.4-3.9-1.5-3.9-1.2.5-1.4,1.5c-.2.7-.3,1.6-.3,2.5Z"/>
    <path class="st0" d="M165.9,48c.1-.2.2-.3.3-.4.5-.6,1-1.2,1.4-1.6.9-1.2,1.7-2.3,2.1-3,.3-.5.4-1,.4-1.4,0-.9-.5-1.5-1.4-1.5s-1.3.3-1.9,1v-1.2c.9-.4,1.6-.7,2.4-.7,1.4,0,2.3.8,2.3,2s-.2,1.2-.8,2c-.3.5-.7,1-1.1,1.5-.5.6-1.1,1.3-1.5,1.8l-.3.4h2.4c.8,0,1.3-.2,1.8-.6l-.4,1.7h-5.6Z"/>
    <path class="st0" d="M173.1,46.5c.5.5,1.2.8,1.9.8,1.1,0,1.8-.7,1.8-1.8s-.9-2-2.7-2.5l.6-3.6h2.6c.7,0,1,0,1.3-.2l-.6,1.3h-2.9l-.3,1.8c2.2.7,3.4,1.8,3.4,3.3s-1.2,2.6-2.8,2.6-1.5-.2-2-.6l-.3-1.1Z"/>
  </g>
  <g>
    <path class="st0" d="M90.7,10.9c0-.3.1-.4.1-.6,0-.2,0-.4,0-.6,0-.3,0-.4,0-.6h0V2.9h0v-.6c0-.5,0-.9-.2-1.5.4,0,.5,0,.9,0,.6,0,1.1,0,1.5,0h1.1c.1-.1.3-.1.4-.1,1.5,0,2.5.8,2.5,2s-.8,2.1-2.2,2.5c1.8.2,2.7,1.1,2.7,2.6s-.9,2.5-2.2,2.9c-.4,0-.8.2-1.3.2-.3,0-.9,0-1.4,0h-2.1ZM92.5,1.4v3.7c.2,0,.2,0,.4,0,1.6,0,2.6-.8,2.6-2.1s-.7-1.6-2.1-1.6h-.7s-.2,0-.2,0ZM92.5,5.8v3.2c0,.6,0,.7,0,.9.1.3.4.5,1,.5,1.4,0,2.3-.9,2.3-2.3s-.2-1.2-.6-1.6c-.5-.5-1-.6-2.1-.6s-.4,0-.7,0Z"/>
    <path class="st0" d="M98.9,10.9c0-.2,0-.3,0-.4,0-.2,0-.4,0-.6,0-.4,0-.6,0-.6V2.2c0-.5,0-.7,0-1.2h0c0-.1,5.6-.1,5.6-.1l.2,1c-.6-.2-1.3-.4-2.2-.4h-1.8v3.8h1.3c.7,0,1.2,0,1.8-.3v1.2c-.5-.2-1-.3-1.8-.3h-1.3v4.3h2.2c.5,0,.8,0,1,0,.5,0,.9-.1,1.5-.4l-.6,1.1h-6Z"/>
    <path class="st0" d="M105.9,9.3c.8.7,1.8,1.1,2.7,1.1s2.1-.8,2.1-1.8,0-.5-.2-.7c-.2-.4-.4-.6-1.1-1l-.7-.4h-.2c0-.1-.9-.7-.9-.7-.9-.5-1.5-1.5-1.5-2.4,0-1.6,1.4-2.7,3.3-2.7s1.1,0,1.6.2h.4c.2.1.3.1.4.1v1.2c-.8-.6-1.5-.9-2.3-.9s-1.9.7-1.9,1.7,0,.5.2.7c.3.5.7.8,1.9,1.4.5.3.8.4,1,.6.3.2.6.4.8.6.5.5.8,1.1.8,1.8,0,1.7-1.7,3.1-3.8,3.1s-1.6-.2-2.7-.7v-1.1Z"/>
    <path class="st0" d="M111.7.8h8l.2,1c-.2,0-.3,0-.4,0-.6-.1-1.3-.2-1.8-.2h-1.2v7.8c0,.5,0,1.1.2,1.6h-1.9c.1-.6.2-1.1.2-1.6V1.4h-1.2c-.6,0-1.4.1-2.2.3l.2-1Z"/>
    <path class="st0" d="M28.3,24.9c0-.3.1-.4.2-.6,0-.2,0-.4,0-.6v-.6s0-.1,0-.1h0v-6.4c0-.6,0-.8,0-1,0-.2,0-.4-.2-.7h2c0,.3-.1.5-.2.7,0,.2,0,.4,0,1.1v7c0,.6,0,.8.2,1.3h-2Z"/>
    <path class="st0" d="M33.4,14.8l5.6,7.6v-6.3c0-.5,0-.8-.2-1.3h1.1c-.1.5-.2,1-.2,1.3h0v8.8h-1.1l-6-8.1v6.9c0,.5,0,.8.2,1.3h-1.1c.2-.6.2-.8.2-1.6v-.5s0-6.1,0-6.1c0-.6,0-.8,0-1.3,0-.4,0-.5-.2-.7h1.7Z"/>
    <path class="st0" d="M41,14.8h8l.2,1c-.2,0-.3,0-.4,0-.6-.1-1.3-.2-1.8-.2h-1.2v7.8c0,.5,0,1.1.2,1.6h-1.9c.1-.6.2-1.1.2-1.6v-7.8h-1.2c-.6,0-1.4.1-2.2.3l.2-1Z"/>
    <path class="st0" d="M49.9,24.9c0-.2,0-.3,0-.4,0-.2,0-.4,0-.6,0-.4,0-.6,0-.6v-7c0-.5,0-.7,0-1.2h0c0-.1,5.6-.1,5.6-.1l.2,1c-.6-.2-1.3-.4-2.2-.4h-1.8v3.8h1.3c.7,0,1.2,0,1.8-.3v1.2c-.5-.2-1-.3-1.8-.3h-1.3v4.3h2.2c.5,0,.8,0,1,0,.5,0,.9-.1,1.5-.4l-.6,1.1h-6Z"/>
    <path class="st0" d="M58.6,14.8c.2,0,.6,0,1.1,0,.6,0,.9,0,1.1,0,1.7,0,2.7.9,2.7,2.3s-1,2.4-2.6,2.9l2.4,3c.2.3.5.6.7.8.3.3.7.6,1,.9.2.2.4.2.7.4h-1.2c-.9,0-1.1,0-1.4-.2-.3-.1-.7-.6-1-1l-2-2.5-.4-.5c-.2-.3-.4-.4-.8-.7v3.6c0,.5,0,.8.2,1.3h-2c0-.3.1-.4.1-.6,0-.2,0-.8,0-1.2h0v-6.4c0,0,0-.2,0-.4,0-.5,0-.6,0-.9,0-.2,0-.3-.2-.7h1.5ZM59,19.5c.2,0,.3,0,.4,0,1.5,0,2.5-.9,2.5-2.3s-.7-1.8-1.8-1.8-.7,0-1.1,0v4Z"/>
    <path class="st0" d="M67.2,14.8l5.6,7.6v-6.3c0-.5,0-.8-.2-1.3h1.1c-.1.5-.2,1-.2,1.3h0v8.8h-1.1l-6-8.1v6.9c0,.5,0,.8.2,1.3h-1.1c.2-.6.2-.8.2-1.6v-.5s0-6.1,0-6.1c0-.6,0-.8,0-1.3,0-.4,0-.5-.2-.7h1.7Z"/>
    <path class="st0" d="M74.4,24.9c.3-.5.4-.6.7-1.3.2-.5.2-.5.4-.8l.5-1.3c.7-1.7,1.3-3.4,1.7-4.5.3-.8.4-1.2.4-1.5s0-.4-.2-.7h1.7l1.7,4,.4,1.1c.7,1.6,1,2.4,1.1,2.7.4,1,.7,1.5,1.3,2.3h-2.2c0-.3,0-.5-.1-.6,0-.3-.3-.8-.5-1.3h0c0,0,0-.2,0-.2l-1-2.4h-3.2l-.8,2.3c-.3.7-.4,1.3-.4,1.6s0,.3,0,.5h-1.5ZM78.6,16.4l-1.3,3.5h2.7l-1.5-3.5Z"/>
    <path class="st0" d="M81.9,14.8h8l.2,1c-.2,0-.3,0-.4,0-.6-.1-1.3-.2-1.8-.2h-1.2v7.8c0,.5,0,1.1.2,1.6h-1.9c.1-.6.2-1.1.2-1.6v-7.8h-1.2c-.6,0-1.4.1-2.2.3l.2-1Z"/>
    <path class="st0" d="M90.9,24.9c0-.3.1-.4.2-.6,0-.2,0-.4,0-.6v-.6s0-.1,0-.1h0v-6.4c0-.6,0-.8,0-1,0-.2,0-.4-.2-.7h2c0,.3-.1.5-.2.7,0,.2,0,.4,0,1.1v7c0,.6,0,.8.2,1.3h-2Z"/>
    <path class="st0" d="M99.1,14.7c2.8,0,4.8,2.1,4.8,5.1s-2.1,5.2-4.9,5.2-2.6-.5-3.5-1.6c-.9-1-1.2-2.1-1.2-3.5,0-3.1,2-5.2,4.9-5.2ZM96,19.9c0,2.7,1.2,4.5,3,4.5s3-1.7,3-4.4-1.1-4.6-3-4.6-3,1.7-3,4.5Z"/>
    <path class="st0" d="M106.9,14.8l5.6,7.6v-6.3c0-.5,0-.8-.2-1.3h1.1c-.1.5-.2,1-.2,1.3h0v8.8h-1l-6-8.1v6.9c0,.5,0,.8.2,1.3h-1.1c.2-.6.2-.8.2-1.6v-.5s0-6.1,0-6.1c0-.6,0-.8,0-1.3,0-.4,0-.5-.2-.7h1.7Z"/>
    <path class="st0" d="M114.1,24.9c.3-.5.4-.6.7-1.3.2-.5.2-.5.4-.8l.5-1.3c.7-1.7,1.3-3.4,1.7-4.5.3-.8.4-1.2.4-1.5s0-.4-.2-.7h1.7l1.7,4,.4,1.1c.7,1.6,1,2.4,1.1,2.7.4,1,.7,1.5,1.3,2.3h-2.2c0-.3,0-.5-.1-.6,0-.3-.3-.8-.5-1.3h0c0,0,0-.2,0-.2l-1-2.4h-3.2l-.8,2.3c-.3.7-.4,1.3-.4,1.6s0,.3,0,.5h-1.5ZM118.3,16.4l-1.3,3.5h2.7l-1.5-3.5Z"/>
    <path class="st0" d="M124.2,24.9c.1-.5.2-.9.2-1.5v-7.1c0-.2,0-.4,0-.7,0-.4,0-.5-.1-.8h1.9c0,.4-.1.9-.1,1.3v8h1.7c.8,0,1.6-.1,2.4-.4l-.5,1.1h-5.4Z"/>
    <path class="st0" d="M133.9,24.9c.3-.5.4-.6.7-1.3.2-.5.2-.5.4-.8l.5-1.3c.7-1.7,1.3-3.4,1.7-4.5.3-.8.4-1.2.4-1.5s0-.4-.2-.7h1.7l1.7,4,.4,1.1c.7,1.6,1,2.4,1.1,2.7.4,1,.7,1.5,1.3,2.3h-2.2c0-.3,0-.5-.1-.6,0-.3-.3-.8-.5-1.3h0c0,0,0-.2,0-.2l-1-2.4h-3.2l-.8,2.3c-.3.7-.4,1.3-.4,1.6s0,.3,0,.5h-1.5ZM138.1,16.4l-1.3,3.5h2.7l-1.5-3.5Z"/>
    <path class="st0" d="M144,24.9c0-.3.1-.4.2-.6,0-.2,0-.4,0-.6v-.6s0-.1,0-.1h0v-6.4c0-.6,0-.8,0-1,0-.2,0-.4-.2-.7h2c0,.3-.1.5-.2.7,0,.2,0,.4,0,1.1v7c0,.6,0,.8.2,1.3h-2Z"/>
    <path class="st0" d="M148.9,14.8c.2,0,.6,0,1.1,0,.6,0,.9,0,1.1,0,1.7,0,2.7.9,2.7,2.3s-1,2.4-2.6,2.9l2.4,3c.2.3.5.6.7.8.3.3.7.6,1,.9.2.2.4.2.7.4h-1.2c-.9,0-1.1,0-1.4-.2-.3-.1-.7-.6-1-1l-2-2.5-.4-.5c-.2-.3-.4-.4-.8-.7v3.6c0,.5,0,.8.2,1.3h-2c0-.3.1-.4.1-.6,0-.2,0-.8,0-1.2h0v-6.4c0,0,0-.2,0-.4,0-.5,0-.6,0-.9,0-.2,0-.3-.2-.7h1.5ZM149.3,19.5c.2,0,.3,0,.4,0,1.5,0,2.5-.9,2.5-2.3s-.7-1.8-1.8-1.8-.7,0-1.1,0v4Z"/>
    <path class="st0" d="M155.9,24.9c.1-.5.2-.9.2-1.5v-7.1c0-.2,0-.4,0-.7,0-.4,0-.5-.1-.8h1.9c0,.4-.1.9-.1,1.3v8h1.7c.8,0,1.6-.1,2.4-.4l-.5,1.1h-5.4Z"/>
    <path class="st0" d="M162.4,24.9c0-.3.1-.4.2-.6,0-.2,0-.4,0-.6v-.6s0-.1,0-.1h0v-6.4c0-.6,0-.8,0-1,0-.2,0-.4-.2-.7h2c0,.3-.1.5-.2.7,0,.2,0,.4,0,1.1v7c0,.6,0,.8.2,1.3h-2Z"/>
    <path class="st0" d="M167.5,14.8l5.6,7.6v-6.3c0-.5,0-.8-.2-1.3h1.1c-.1.5-.2,1-.2,1.3h0v8.8h-1.1l-6-8.1v6.9c0,.5,0,.8.2,1.3h-1.1c.2-.6.2-.8.2-1.6v-.5s0-6.1,0-6.1c0-.6,0-.8,0-1.3,0-.4,0-.5-.2-.7h1.7Z"/>
    <path class="st0" d="M175.7,24.9c0-.2,0-.3,0-.4,0-.2,0-.4,0-.6,0-.4,0-.6,0-.6v-7c0-.5,0-.7,0-1.2h0c0-.1,5.6-.1,5.6-.1l.2,1c-.6-.2-1.3-.4-2.2-.4h-1.8v3.8h1.3c.7,0,1.2,0,1.8-.3v1.2c-.5-.2-1-.3-1.8-.3h-1.3v4.3h2.2c.5,0,.8,0,1,0,.5,0,.9-.1,1.5-.4l-.6,1.1h-6Z"/>
  </g>
  <g>
    <g>
      <path class="st0" d="M8.8,12.5c.3-1.6.6-2.7.6-2.7.1-1.2-.3-1.9-.9-2.2-.7-.6-2.4-1.5-2.4-1.5,0,0,0,.9-.4,2.5.3.2,1.3,1.3,2.1,1.8.6.3,1,.9,1,2.1Z"/>
      <path class="st0" d="M10,9c.7-1.3,1.2-2.2,1.2-2.2.4-1,.2-1.7-.1-2.1-.5-.6-1.6-2-1.6-2,0,0-.4.8-1.1,2.1.2.2.9,1.4,1.4,2,.3.5.5,1.2.2,2.2Z"/>
      <path class="st0" d="M12,5.1c.6-.9,1.2-1.5,1.2-1.5.4-.7.4-1.2.1-1.6-.3-.5-1-1.6-1-1.6,0,0-.4.6-1,1.4,0,.2.5,1.2.8,1.7.2.4.3.9-.1,1.6Z"/>
      <path class="st0" d="M15.6,42.5c-1.2,1.3-4.1,4.2-4.1,4.2,0,0,2,.8,5.1,2,.5-.5,2.9-3,4.1-4.2s2.2-1.5,4.4-1c-2.7-1.1-4.7-1.9-4.7-1.9-2.3-.7-3.8,0-4.8.9Z"/>
      <path class="st0" d="M6,12.4c-1.1-.4-3.7-1.4-3.7-1.4,0,0,0,1.5.2,3.6.4.2,2.2,1.2,3.3,1.7.9.3,1.7,1.1,2,2.6-.1-2.1-.1-3.9-.1-3.9-.2-1.5-.9-2.3-1.7-2.6Z"/>
      <path class="st0" d="M8.4,34c-1.6.7-5.3,2.4-5.3,2.4,0,0,1.6,1.5,4,3.7.6-.3,3.9-1.8,5.4-2.3,1.2-.5,2.6-.5,4.5.7-2.1-2-3.7-3.4-3.7-3.4-2-1.6-3.5-1.6-4.9-1.1Z"/>
      <path class="st0" d="M8.6,24.8c-.5-2.1-.9-3.5-.9-3.5-.6-1.8-1.6-2.3-2.5-2.5-1.4-.2-4.3-.7-4.3-.7,0,0,.4,1.6,1,3.9.5.1,3,.5,4.2.7.9.1,1.8.6,2.5,2.1Z"/>
      <path class="st0" d="M11.5,31.6c-1.4-2.2-2.3-3.8-2.3-3.8-1.4-1.8-2.7-2.1-4-2-1.6.2-5.2.8-5.2.8,0,0,1.1,1.7,2.6,4.2.6-.1,3.8-.6,5.2-.8,1.2-.2,2.4.2,3.7,1.6Z"/>
    </g>
    <g>
      <path class="st0" d="M201.2,12.5c-.3-1.6-.6-2.7-.6-2.7-.1-1.2.3-1.9.9-2.2.7-.5,2.3-1.6,2.3-1.6,0,0,.2,1.1.5,2.5-.3.2-1.4,1.3-2.1,1.8-.6.4-1,1-1,2.2h0Z"/>
      <path class="st0" d="M199.9,9c-.7-1.3-1.2-2.2-1.2-2.2-.4-1-.2-1.7.1-2.1.5-.6,1.6-2,1.6-2,0,0,.4.9,1.1,2-.2.2-.9,1.5-1.4,2-.2.6-.4,1.3-.2,2.3h0Z"/>
      <path class="st0" d="M198,5.1c-.6-.9-1.1-1.5-1.1-1.5-.4-.7-.4-1.2-.1-1.6.3-.5.9-1.6.9-1.6,0,0,.4.6,1,1.4-.1.2-.5,1.2-.8,1.7-.3.4-.3.9.1,1.6Z"/>
      <path class="st0" d="M194.4,42.5c1.2,1.3,4.1,4.2,4.1,4.2,0,0-2,.8-5.1,2-.5-.5-2.9-3-4.1-4.2-1-1-2.2-1.5-4.4-1,2.8-1.1,4.7-1.9,4.7-1.9,2.3-.7,3.8,0,4.8.9h0Z"/>
      <path class="st0" d="M203.9,12.4c1.1-.4,3.6-1.4,3.6-1.4,0,0-.1,1.5-.2,3.6-.4.2-2.2,1.2-3.3,1.7-.9.3-1.7,1.1-2,2.6.1-2.1.1-3.9.1-3.9.3-1.5,1.1-2.3,1.8-2.6h0Z"/>
      <path class="st0" d="M201.5,34c1.6.7,5.3,2.3,5.3,2.3,0,0-1.6,1.5-4,3.7-.6-.3-3.9-1.8-5.4-2.3-1.2-.5-2.6-.5-4.5.7,2.1-2,3.7-3.4,3.7-3.4,2.1-1.5,3.6-1.5,4.9-1Z"/>
      <path class="st0" d="M201.4,24.8c.6-2.1.9-3.5.9-3.5.6-1.8,1.6-2.3,2.5-2.5,1.3-.2,4.2-.7,4.2-.7,0,0-.4,1.6-1,3.9-.5.1-3,.5-4.2.7-.8.1-1.7.6-2.4,2.1Z"/>
      <path class="st0" d="M198.5,31.6c1.4-2.2,2.3-3.8,2.3-3.8,1.4-1.8,2.7-2.1,4-2,1.6.2,5.2.8,5.2.8,0,0-1.1,1.7-2.6,4.2-.6-.1-3.8-.6-5.2-.8-1.2-.2-2.4.2-3.7,1.6Z"/>
    </g>
  </g>
</svg>