<?xml version="1.0" encoding="UTF-8"?>
<svg id="Layer_1" xmlns="http://www.w3.org/2000/svg" version="1.1" viewBox="0 0 172 50">
  <!-- Generator: Adobe Illustrator 30.1.0, SVG Export Plug-In . SVG Version: 2.1.1 Build 136)  -->
  <defs>
    <style>
      .st0 {
        fill: #bd8839;
      }
    </style>
  </defs>
  <g>
    <path class="st0" d="M43.8,36.9c0-.3,0-.4.1-.5,0-.1,0-.3,0-.6,0-.2,0-.4,0-.5h0v-5.3h0v-.5c0-.4,0-.8-.1-1.3.3,0,.5,0,.7,0,.5,0,1,0,1.3,0h.9c.1,0,.2-.1.3-.1,1.3,0,2.1.6,2.1,1.7s-.7,1.8-1.9,2.2c1.5.2,2.4,1,2.4,2.3s-.8,2.2-1.9,2.4c-.3,0-.7.1-1.1.1-.3,0-.8,0-1.2,0h-1.8ZM45.3,28.8v3.1c.1,0,.2,0,.3,0,1.4,0,2.2-.7,2.2-1.8s-.6-1.4-1.8-1.4h-.6s-.1,0-.1,0ZM45.3,32.5v2.7c0,.5,0,.6,0,.7.1.3.3.4.9.4,1.2,0,2-.8,2-2s-.2-1.1-.5-1.4c-.4-.4-.9-.5-1.8-.5s-.4,0-.6,0Z"/>
    <path class="st0" d="M52.1,30.8v4.2c0,.2,0,.4,0,.5,0,.5.5.8,1,.8.8,0,1.4-.5,1.4-1.3v-2.9c0,0,0-.2,0-.4,0-.4,0-.5,0-.8h1.3v4.7h0c0,.1,0,.3,0,.6,0,.4,0,.5,0,.8h-1.3v-.8c-.5.6-1.2.9-2,.9-1.1,0-1.8-.6-1.8-1.6h0c0,0,0-.7,0-.7v-2.6s0-.4,0-.4c0-.4,0-.5,0-.8h1.3Z"/>
    <path class="st0" d="M56.8,35.8c.2.1.2.2.4.3.4.3,1.1.5,1.5.5s1-.4,1-.9,0-.3,0-.5c0-.1-.1-.2-.3-.3-.2-.2-.3-.3-1-.7-1.1-.6-1.4-1.1-1.4-1.8,0-1,.9-1.7,2.1-1.7s.4,0,.9.1c.3,0,.4,0,.5,0s0,0,.2,0l.2.9c-.5-.3-1.2-.6-1.6-.6s-.9.3-.9.8.3.8,1.2,1.3c.8.4.9.5,1.1.8.3.3.4.7.4,1.1,0,1.1-.9,1.9-2.4,1.9s-1,0-1.6-.3l-.2-1Z"/>
    <path class="st0" d="M62.7,28.6c.4,0,.8.3.8.8s-.3.7-.8.7-.8-.3-.8-.8.4-.7.8-.7ZM61.9,36.9c0-.2,0-.3,0-.4,0,0,0-.2,0-.4v-.4h0v-4.4c0-.1,0-.2,0-.4h1.3v4.7h0v.2h0v.4c0,.5,0,.5,0,.8h-1.4Z"/>
    <path class="st0" d="M64.6,36.9c0-.3,0-.4,0-.8,0-.2,0-.4,0-.4v-3.6c0-.1,0-.2,0-.4v-.4c0,0,0-.2,0-.4h1.3v.7c.5-.6,1.2-.9,1.9-.9s1.1.2,1.4.6c.3.3.3.6.3,1.4s0,.4,0,.6c0,.2,0,.6,0,1.3v.9h0c0,.1,0,.3,0,.6,0,.5,0,.5,0,.8h-1.3v-3.6c0-.6,0-.9,0-1s0-.1,0-.2c-.1-.4-.5-.6-1-.6s-.8.2-1.1.5c-.3.3-.3.4-.3,1.4v2.1h0v.6c0,.4,0,.5,0,.8h-1.4Z"/>
    <path class="st0" d="M75.4,36.1c-.6.6-1.3.9-2,.9-1.6,0-2.7-1.2-2.7-3s1.1-3.3,2.7-3.3,2.2,1,2.2,2-.1.3-.4.3h-3.2c0,.3,0,.5,0,.7,0,1.5.6,2.4,1.8,2.4s1.3-.3,1.8-.8l-.2.8ZM72.1,32.6h1.5c.5,0,.7-.1.7-.5s-.4-.9-.9-.9-1.1.6-1.3,1.4Z"/>
    <path class="st0" d="M76.3,35.8c.2.1.2.2.4.3.4.3,1.1.5,1.5.5s1-.4,1-.9,0-.3,0-.5c0-.1-.1-.2-.3-.3-.2-.2-.3-.3-1-.7-1.1-.6-1.4-1.1-1.4-1.8,0-1,.9-1.7,2.1-1.7s.4,0,.9.1c.3,0,.4,0,.5,0s0,0,.2,0l.2.9c-.5-.3-1.2-.6-1.6-.6s-.9.3-.9.8.3.8,1.2,1.3c.8.4.9.5,1.1.8.3.3.4.7.4,1.1,0,1.1-.9,1.9-2.4,1.9s-1,0-1.6-.3l-.2-1Z"/>
    <path class="st0" d="M81.1,35.8c.2.1.2.2.4.3.4.3,1.1.5,1.5.5s1-.4,1-.9,0-.3,0-.5c0-.1-.1-.2-.3-.3-.2-.2-.3-.3-1-.7-1.1-.6-1.4-1.1-1.4-1.8,0-1,.9-1.7,2.1-1.7s.4,0,.9.1c.3,0,.4,0,.5,0s0,0,.2,0l.2.9c-.5-.3-1.2-.6-1.6-.6s-.9.3-.9.8.3.8,1.2,1.3c.8.4.9.5,1.1.8.3.3.4.7.4,1.1,0,1.1-.9,1.9-2.4,1.9s-1,0-1.6-.3l-.2-1Z"/>
    <path class="st0" d="M89.2,28.3h6.9v.8s-.1,0-.2,0c-.5-.1-1.1-.2-1.5-.2h-1v6.7c0,.5,0,.9.1,1.4h-1.6c.1-.5.2-.9.2-1.4v-6.7h-1c-.5,0-1.2.1-1.9.3v-.8Z"/>
    <path class="st0" d="M95.4,36.9c0-.3,0-.5.1-.8v-.4s0-.2,0-.2v-3.8c0-.2,0-.3,0-.4,0-.1,0-.2,0-.4h1.3v.9c.4-.6,1-1.1,1.5-1.1h.1c0,.3,0,.4-.1.7,0,.3,0,.4,0,.8-.3-.2-.5-.3-.7-.3-.4,0-.7.5-.7,1.3v2.4h0c0,.2,0,.3,0,.6,0,.2,0,.3,0,.3,0,.2,0,.3,0,.5h-1.4Z"/>
    <path class="st0" d="M101.7,36.1c-.4.6-1,.9-1.7.9s-1.5-.6-1.5-1.4.4-1.1,1.2-1.5l.8-.4c.5-.3.9-.5,1-.7,0-.1.1-.3.1-.6s0-.6,0-.8c0-.4-.4-.6-.9-.6s-.8.2-.8.5v.4c-.1.3-.4.5-.7.5s-.6-.2-.6-.5c0-.7,1.1-1.3,2.3-1.3s.9,0,1.3.2c.5.2.7.5.7,1.3h0v3.2h0v.2s0,.2,0,.4c0,.4,0,.5,0,.8h-1.3v-.8ZM101.7,33.5c-.3.2-.5.3-.9.6-.6.3-.8.5-.9.8,0,.2-.1.4-.1.5,0,.5.3.9.8.9s.8-.2,1-.6c0-.2.1-.2.1-.6v-1.6Z"/>
    <path class="st0" d="M105.1,30.8v.2c0,.2,0,.3.1.6,0,.2.1.3.1.4v.2s1.3,3.3,1.3,3.3l1.2-3.3c.2-.4.2-.8.2-1s0-.2,0-.4h1.1c-.1.3-.2.4-.3.5v.3c-.2.2-.3.3-.3.4h0c0,.1-1.7,4.8-1.7,4.8h-.9l-1.8-4.7h0c0-.2,0-.3-.2-.6v-.3c-.2-.2-.3-.3-.4-.5h1.6Z"/>
    <path class="st0" d="M114,36.1c-.6.6-1.3.9-2,.9-1.6,0-2.7-1.2-2.7-3s1.1-3.3,2.7-3.3,2.2,1,2.2,2-.1.3-.4.3h-3.2c0,.3,0,.5,0,.7,0,1.5.6,2.4,1.8,2.4s1.3-.3,1.8-.8l-.2.8ZM110.7,32.6h1.5c.5,0,.7-.1.7-.5s-.4-.9-.9-.9-1.1.6-1.3,1.4Z"/>
    <path class="st0" d="M116.5,28.3v7.3c0,0,0,.2,0,.6,0,.3,0,.3,0,.4,0,.1,0,.2,0,.4h-1.4c0-.2,0-.3,0-.4s0-.2,0-.4,0-.3,0-.4v-6.3h0v-.4c0-.4,0-.5,0-.8h1.3Z"/>
    <path class="st0" d="M119.2,28.3v7.3c0,0,0,.2,0,.6,0,.3,0,.3,0,.4,0,.1,0,.2,0,.4h-1.4c0-.2,0-.3,0-.4s0-.2,0-.4,0-.3,0-.4v-6.3h0v-.4c0-.4,0-.5,0-.8h1.3Z"/>
    <path class="st0" d="M125.1,36.1c-.6.6-1.3.9-2,.9-1.6,0-2.7-1.2-2.7-3s1.1-3.3,2.7-3.3,2.2,1,2.2,2-.1.3-.4.3h-3.2c0,.3,0,.5,0,.7,0,1.5.6,2.4,1.8,2.4s1.3-.3,1.8-.8l-.2.8ZM121.8,32.6h1.5c.5,0,.7-.1.7-.5s-.4-.9-.9-.9-1.1.6-1.3,1.4Z"/>
    <path class="st0" d="M126.3,36.9c0-.3,0-.5.1-.8v-.4s0-.2,0-.2v-3.8c0-.2,0-.3,0-.4,0-.1,0-.2,0-.4h1.3v.9c.4-.6,1-1.1,1.5-1.1h.1c0,.3,0,.4-.1.7,0,.3,0,.4,0,.8-.3-.2-.5-.3-.7-.3-.4,0-.7.5-.7,1.3v2.4h0c0,.2,0,.3,0,.6,0,.2,0,.3,0,.3,0,.2,0,.3,0,.5h-1.4Z"/>
    <path class="st0" d="M52.6,47.9c.3-.4.3-.5.6-1.1.2-.4.2-.5.3-.7l.5-1.1c.6-1.4,1.1-2.9,1.5-3.8.3-.7.3-1,.3-1.3s0-.4-.1-.6h1.5l1.5,3.4.4.9c.6,1.4.9,2.1,1,2.3.4.8.6,1.3,1.1,2h-1.9c0-.3,0-.4-.1-.5,0-.2-.2-.7-.4-1.1h0c0,0,0-.2,0-.2l-.9-2h-2.7l-.7,2c-.2.6-.4,1.1-.4,1.4s0,.2,0,.4h-1.3ZM56.2,40.6l-1.1,3h2.3l-1.2-3Z"/>
    <path class="st0" d="M61.8,41.8c0,.2,0,.3,0,.4,0,0,0,0,0,0s0,.1,0,.4v.4c.1,0,.1.1.1.1l1,3.4,1-3.4c0-.6,0-.9-.3-1.3h0s1.7,0,1.7,0c0,.1-.1.3-.1.5s0,.3.1.7l1,3.6,1-3.4h0c0-.1,0-.2,0-.2,0,0,0-.2,0-.4,0-.2,0-.4,0-.5s0-.2,0-.4h1c0,.2-.2.3-.2.4,0,0,0,.2-.2.4,0,.2-.1.3-.1.4h0c0,0,0,.2,0,.2l-1.5,4.7h-1.1l-1.2-4.2-1.2,4.2h-1.1l-1.3-4.7h0c0-.2,0-.3-.1-.6-.1-.4-.2-.5-.3-.8h1.4Z"/>
    <path class="st0" d="M72,47.1c-.4.6-1,.9-1.7.9s-1.5-.6-1.5-1.4.4-1.1,1.2-1.5l.8-.4c.5-.3.9-.5,1-.7,0-.1.1-.3.1-.6s0-.6,0-.8c0-.4-.4-.6-.9-.6s-.8.2-.8.5v.4c-.1.3-.4.5-.7.5s-.6-.2-.6-.5c0-.7,1.1-1.3,2.3-1.3s.9,0,1.3.2c.5.2.7.5.7,1.3h0v3.2h0v.2s0,.2,0,.4c0,.4,0,.5,0,.8h-1.3v-.8ZM72,44.5c-.3.2-.5.3-.9.6-.6.3-.8.5-.9.8,0,.2-.1.4-.1.5,0,.5.3.9.8.9s.8-.2,1-.6c0-.2.1-.2.1-.6v-1.6Z"/>
    <path class="st0" d="M74.5,47.9c0-.3,0-.5.1-.8v-.4s0-.2,0-.2v-3.8c0-.2,0-.3,0-.4,0-.1,0-.2,0-.4h1.3v.9c.4-.6,1-1.1,1.5-1.1h.1c0,.3,0,.4-.1.7,0,.3,0,.4,0,.8-.3-.2-.5-.3-.7-.3-.4,0-.7.5-.7,1.3v2.4h0c0,.2,0,.3,0,.6,0,.2,0,.3,0,.3,0,.2,0,.3,0,.5h-1.4Z"/>
    <path class="st0" d="M81.5,40.6h0c0-.1,0-.5,0-.5v-.4c0,0,0-.2,0-.4h1.2v7.3s0,0,0,.2v.4c0,.4,0,.5,0,.8h-1.3v-.9c-.4.7-.9,1-1.6,1-1.3,0-2.2-1.2-2.2-3s1.1-3.3,2.7-3.3.7,0,1.2.3v-1.4ZM78.9,44.7h0c-.1,1.6.5,2.5,1.4,2.5s.8-.3,1-.6c.2-.3.2-.6.2-1.2h0v-1.6c0-.7,0-.9-.2-1.1-.2-.3-.5-.4-.9-.4-.9,0-1.3.9-1.5,2.5Z"/>
    <path class="st0" d="M83.7,46.8c.2.1.2.2.4.3.4.3,1.1.5,1.5.5s1-.4,1-.9,0-.3,0-.5c0-.1-.1-.2-.3-.3-.2-.2-.3-.3-1-.7-1.1-.6-1.4-1.1-1.4-1.8,0-1,.9-1.7,2.1-1.7s.4,0,.9.1c.3,0,.4,0,.5,0s0,0,.2,0l.2.9c-.5-.3-1.2-.6-1.6-.6s-.9.3-.9.8.3.8,1.2,1.3c.8.4.9.5,1.1.8.3.3.4.7.4,1.1,0,1.1-.9,1.9-2.4,1.9s-1,0-1.6-.3l-.2-1Z"/>
    <path class="st0" d="M92.1,47.9c.1-.2.2-.3.3-.4.5-.6,1-1.2,1.4-1.6.9-1.2,1.7-2.3,2.1-3,.3-.5.4-1,.4-1.4,0-.9-.5-1.5-1.4-1.5s-1.3.3-1.9,1v-1.2c.9-.4,1.6-.7,2.4-.7,1.4,0,2.3.8,2.3,2s-.2,1.2-.8,2c-.3.5-.7,1-1.1,1.5-.5.6-1.1,1.3-1.5,1.8l-.3.4h2.4c.8,0,1.3-.2,1.8-.6l-.4,1.7h-5.6Z"/>
    <path class="st0" d="M102.2,39.1c1.2,0,2,.6,2.5,1.6.3.7.4,1.5.4,2.7s0,1.2-.1,1.8c-.3,1.8-1.3,2.9-2.9,2.9s-2-.6-2.5-1.5c-.3-.7-.5-1.6-.5-2.9,0-3.1,1-4.7,3.1-4.7ZM100.5,43.6h0c0,2.7.5,3.9,1.6,3.9s1.6-1.2,1.6-4-.4-3.9-1.5-3.9-1.2.5-1.4,1.5c-.2.7-.3,1.6-.3,2.5Z"/>
    <path class="st0" d="M105.9,47.9c.1-.2.2-.3.3-.4.5-.6,1-1.2,1.4-1.6.9-1.2,1.7-2.3,2.1-3,.3-.5.4-1,.4-1.4,0-.9-.5-1.5-1.4-1.5s-1.3.3-1.9,1v-1.2c.9-.4,1.6-.7,2.4-.7,1.4,0,2.3.8,2.3,2s-.2,1.2-.8,2c-.3.5-.7,1-1.1,1.5-.5.6-1.1,1.3-1.5,1.8l-.3.4h2.4c.8,0,1.3-.2,1.8-.6l-.4,1.7h-5.6Z"/>
    <path class="st0" d="M113.2,46.4c.5.5,1.2.8,1.9.8,1.1,0,1.8-.7,1.8-1.8s-.9-2-2.7-2.5l.6-3.6h2.6c.7,0,1,0,1.3-.2l-.6,1.3h-2.9l-.3,1.8c2.2.7,3.4,1.8,3.4,3.3s-1.2,2.6-2.8,2.6-1.5-.2-2-.6l-.3-1.1Z"/>
  </g>
  <g>
    <path class="st0" d="M71.8,11.4c0-.3.1-.4.1-.6,0-.2,0-.4,0-.6,0-.3,0-.4,0-.6h0V3.4h0v-.6c0-.5,0-.9-.2-1.5.4,0,.5,0,.9,0,.6,0,1.1,0,1.5,0h1.1c.1-.1.3-.1.4-.1,1.5,0,2.5.8,2.5,2s-.8,2.1-2.2,2.5c1.8.2,2.7,1.1,2.7,2.6s-.9,2.5-2.2,2.9c-.4,0-.8.2-1.3.2-.3,0-.9,0-1.4,0h-2.1ZM73.6,1.9v3.7c.2,0,.2,0,.4,0,1.6,0,2.6-.8,2.6-2.1s-.7-1.6-2.1-1.6h-.7s-.2,0-.2,0ZM73.6,6.3v3.2c0,.6,0,.7,0,.9.1.3.4.5,1,.5,1.4,0,2.3-.9,2.3-2.3s-.2-1.2-.6-1.6c-.5-.5-1-.6-2.1-.6s-.4,0-.7,0Z"/>
    <path class="st0" d="M80,11.4c0-.2,0-.3,0-.4,0-.2,0-.4,0-.6,0-.4,0-.6,0-.6V2.7c0-.5,0-.7,0-1.2h0c0-.1,5.6-.1,5.6-.1l.2,1c-.6-.2-1.3-.4-2.2-.4h-1.8v3.8h1.3c.7,0,1.2,0,1.8-.3v1.2c-.5-.2-1-.3-1.8-.3h-1.3v4.3h2.2c.5,0,.8,0,1,0,.5,0,.9-.1,1.5-.4l-.6,1.1h-6Z"/>
    <path class="st0" d="M87,9.9c.8.7,1.8,1.1,2.7,1.1s2.1-.8,2.1-1.8,0-.5-.2-.7c-.2-.4-.4-.6-1.1-1l-.7-.4h-.2c0-.1-.9-.7-.9-.7-.9-.5-1.5-1.5-1.5-2.4,0-1.6,1.4-2.7,3.3-2.7s1.1,0,1.6.2h.4c.2.1.3.1.4.1v1.2c-.8-.6-1.5-.9-2.3-.9s-1.9.7-1.9,1.7,0,.5.2.7c.3.5.7.8,1.9,1.4.5.3.8.4,1,.6.3.2.6.4.8.6.5.5.8,1.1.8,1.8,0,1.7-1.7,3.1-3.8,3.1s-1.6-.2-2.7-.7v-1.1Z"/>
    <path class="st0" d="M92.8,1.3h8l.2,1c-.2,0-.3,0-.4,0-.6-.1-1.3-.2-1.8-.2h-1.2v7.8c0,.5,0,1.1.2,1.6h-1.9c.1-.6.2-1.1.2-1.6V1.9h-1.2c-.6,0-1.4.1-2.2.3l.2-1Z"/>
    <path class="st0" d="M19.7,25.4c.3-.5.4-.6.7-1.3.2-.5.2-.5.4-.8l.5-1.3c.7-1.7,1.3-3.4,1.7-4.5.3-.8.4-1.2.4-1.5s0-.4-.2-.7h1.7l1.7,4,.4,1.1c.7,1.6,1,2.4,1.1,2.7.4,1,.7,1.5,1.3,2.3h-2.2c0-.3,0-.5-.1-.6,0-.3-.3-.8-.5-1.3h0c0,0,0-.2,0-.2l-1-2.4h-3.2l-.8,2.3c-.3.7-.4,1.3-.4,1.6s0,.3,0,.5h-1.5ZM23.9,16.9l-1.3,3.5h2.7l-1.5-3.5Z"/>
    <path class="st0" d="M29.5,23.9c.8.7,1.8,1.1,2.7,1.1s2.1-.8,2.1-1.8,0-.5-.2-.7c-.2-.4-.4-.6-1.1-1l-.7-.4h-.2c0-.1-.9-.7-.9-.7-.9-.5-1.5-1.5-1.5-2.4,0-1.6,1.4-2.7,3.3-2.7s1.1,0,1.6.2h.4c.2.1.3.1.4.1v1.2c-.8-.6-1.5-.9-2.3-.9s-1.9.7-1.9,1.7,0,.5.2.7c.3.5.7.8,1.9,1.4.5.3.8.4,1,.6.3.2.6.4.8.6.5.5.8,1.1.8,1.8,0,1.7-1.7,3.1-3.8,3.1s-1.6-.2-2.7-.7v-1.1Z"/>
    <path class="st0" d="M37.1,25.4c0-.3.1-.4.2-.6,0-.2,0-.4,0-.6v-.6s0-.1,0-.1h0v-6.4c0-.6,0-.8,0-1,0-.2,0-.4-.2-.7h2c0,.3-.1.5-.2.7,0,.2,0,.4,0,1.1v7c0,.6,0,.8.2,1.3h-2Z"/>
    <path class="st0" d="M39.6,25.4c.3-.5.4-.6.7-1.3.2-.5.2-.5.4-.8l.5-1.3c.7-1.7,1.3-3.4,1.7-4.5.3-.8.4-1.2.4-1.5s0-.4-.2-.7h1.7l1.7,4,.4,1.1c.7,1.6,1,2.4,1.1,2.7.4,1,.7,1.5,1.3,2.3h-2.2c0-.3,0-.5-.1-.6,0-.3-.3-.8-.5-1.3h0c0,0,0-.2,0-.2l-1-2.4h-3.2l-.8,2.3c-.3.7-.4,1.3-.4,1.6s0,.3,0,.5h-1.5ZM43.8,16.9l-1.3,3.5h2.7l-1.5-3.5Z"/>
    <path class="st0" d="M49.1,22.1l.6-1.1h4l-.6,1.1h-4Z"/>
    <path class="st0" d="M54.9,25.4c0-.3,0-.4.1-.6,0-.2,0-.8,0-1.3v-6.9c0-.5,0-.8-.2-1.3h1.2c.4,0,.8,0,1.3,0,.3,0,.6,0,.9,0,2,0,3.1.9,3.1,2.6s-1.4,3.1-3.3,3.1-.8,0-1.2-.2h.2c1.6,0,2.7-1.1,2.7-2.7s0-.7-.2-1c-.3-.8-.9-1.1-2.3-1.1s-.3,0-.6,0v8.2c0,.5,0,.8.2,1.3h-1.9Z"/>
    <path class="st0" d="M60.1,25.4c.3-.5.4-.6.7-1.3.2-.5.2-.5.4-.8l.5-1.3c.7-1.7,1.3-3.4,1.7-4.5.3-.8.4-1.2.4-1.5s0-.4-.2-.7h1.7l1.7,4,.4,1.1c.7,1.6,1,2.4,1.1,2.7.4,1,.7,1.5,1.3,2.3h-2.2c0-.3,0-.5-.1-.6,0-.3-.3-.8-.5-1.3h0c0,0,0-.2,0-.2l-1-2.4h-3.2l-.8,2.3c-.3.7-.4,1.3-.4,1.6s0,.3,0,.5h-1.5ZM64.3,16.9l-1.3,3.5h2.7l-1.5-3.5Z"/>
    <path class="st0" d="M77,16.8c-.8-.6-1.8-.9-2.6-.9-1.9,0-3.1,1.7-3.1,4.4s1.2,4.4,3.2,4.4,1.8-.4,2.8-1.5l-.4,1.3c-.9.7-1.9,1-2.9,1-2.6,0-4.5-2.2-4.5-5.1s2.1-5.3,4.8-5.3,1,0,1.5.2c.2,0,.4,0,.4,0h.3c0,0,.2,0,.2,0s0,0,.2,0v1.3Z"/>
    <path class="st0" d="M78.4,25.4c0-.3.1-.4.2-.6,0-.2,0-.4,0-.6v-.6s0-.1,0-.1h0v-6.4c0-.6,0-.8,0-1,0-.2,0-.4-.2-.7h2c0,.3-.1.5-.2.7,0,.2,0,.4,0,1.1v7c0,.6,0,.8.2,1.3h-2Z"/>
    <path class="st0" d="M81.9,25.4c.2-.5.2-.9.2-1.5v-7.3c0-.5,0-.9-.2-1.3h5.6l.2,1h-.2c-.9-.2-1.5-.3-2-.3h-1.8v4h1.3c.6,0,1.2,0,1.8-.3v1.2c-.5-.2-1.3-.3-1.8-.3h-1.4v3.3c0,.6,0,1,.2,1.5h-2Z"/>
    <path class="st0" d="M88.4,25.4c0-.3.1-.4.2-.6,0-.2,0-.4,0-.6v-.6s0-.1,0-.1h0v-6.4c0-.6,0-.8,0-1,0-.2,0-.4-.2-.7h2c0,.3-.1.5-.2.7,0,.2,0,.4,0,1.1v7c0,.6,0,.8.2,1.3h-2Z"/>
    <path class="st0" d="M99.2,16.8c-.8-.6-1.8-.9-2.6-.9-1.9,0-3.1,1.7-3.1,4.4s1.2,4.4,3.2,4.4,1.8-.4,2.8-1.5l-.4,1.3c-.9.7-1.9,1-2.9,1-2.6,0-4.5-2.2-4.5-5.1s2.1-5.3,4.8-5.3,1,0,1.5.2c.2,0,.4,0,.4,0h.3c0,0,.2,0,.2,0s0,0,.2,0v1.3Z"/>
    <path class="st0" d="M103.7,25.4c.3-.5.4-.6.7-1.3.2-.5.2-.5.3-.8l.5-1.3c.7-1.7,1.3-3.4,1.7-4.5.3-.8.4-1.2.4-1.5s0-.4-.2-.7h1.7l1.7,4,.4,1.1c.7,1.6,1,2.4,1.1,2.7.4,1,.7,1.5,1.3,2.3h-2.2c0-.3,0-.5-.1-.6,0-.3-.3-.8-.5-1.3h0c0,0,0-.2,0-.2l-1-2.4h-3.2l-.8,2.3c-.3.7-.4,1.3-.4,1.6s0,.3,0,.5h-1.5ZM107.9,16.9l-1.3,3.5h2.7l-1.5-3.5Z"/>
    <path class="st0" d="M113.8,25.4c0-.3.1-.4.2-.6,0-.2,0-.4,0-.6v-.6s0-.1,0-.1h0v-6.4c0-.6,0-.8,0-1,0-.2,0-.4-.2-.7h2c0,.3-.1.5-.2.7,0,.2,0,.4,0,1.1v7c0,.6,0,.8.2,1.3h-2Z"/>
    <path class="st0" d="M118.8,15.3c.2,0,.6,0,1.1,0,.6,0,.9,0,1.1,0,1.7,0,2.7.9,2.7,2.3s-1,2.4-2.6,2.9l2.4,3c.2.3.5.6.7.8.3.3.7.6,1,.9.2.2.4.2.7.4h-1.2c-.9,0-1.1,0-1.4-.2-.3-.1-.7-.6-1-1l-2-2.5-.3-.5c-.2-.3-.4-.4-.8-.7v3.6c0,.5,0,.8.2,1.3h-2c0-.3.1-.4.1-.6,0-.2,0-.8,0-1.2h0v-6.4c0,0,0-.2,0-.4,0-.5,0-.6,0-.9,0-.2,0-.3-.2-.7h1.5ZM119.1,20c.2,0,.3,0,.4,0,1.5,0,2.5-.9,2.5-2.3s-.7-1.8-1.8-1.8-.7,0-1.1,0v4Z"/>
    <path class="st0" d="M125.7,25.4c.1-.5.2-.9.2-1.5v-7.1c0-.2,0-.4,0-.7,0-.4,0-.5-.1-.8h1.9c0,.4-.1.9-.1,1.3v8h1.7c.8,0,1.6-.1,2.4-.4l-.5,1.1h-5.4Z"/>
    <path class="st0" d="M132.3,25.4c0-.3.1-.4.2-.6,0-.2,0-.4,0-.6v-.6s0-.1,0-.1h0v-6.4c0-.6,0-.8,0-1,0-.2,0-.4-.2-.7h2c0,.3-.1.5-.2.7,0,.2,0,.4,0,1.1v7c0,.6,0,.8.2,1.3h-2Z"/>
    <path class="st0" d="M137.4,15.3l5.6,7.6v-6.3c0-.5,0-.8-.2-1.3h1.1c-.1.5-.2,1-.2,1.3h0v8.8h-1.1l-6-8.1v6.9c0,.5,0,.8.2,1.3h-1.1c.2-.6.2-.8.2-1.6v-.5s0-6.1,0-6.1c0-.6,0-.8,0-1.3,0-.4,0-.5-.2-.7h1.7Z"/>
    <path class="st0" d="M145.6,25.4c0-.2,0-.3,0-.4,0-.2,0-.4,0-.6,0-.4,0-.6,0-.6v-7c0-.5,0-.7,0-1.2h0c0-.1,5.6-.1,5.6-.1l.2,1c-.6-.2-1.3-.4-2.2-.4h-1.8v3.8h1.3c.7,0,1.2,0,1.8-.3v1.2c-.5-.2-1-.3-1.8-.3h-1.3v4.3h2.2c.5,0,.8,0,1,0,.5,0,.9-.1,1.5-.4l-.6,1.1h-6Z"/>
  </g>
  <g>
    <g>
      <path class="st0" d="M9.9,12.6c.3-1.6.6-2.7.6-2.7.1-1.2-.3-1.9-.9-2.2-.7-.6-2.4-1.5-2.4-1.5,0,0,0,.9-.4,2.5.3.2,1.3,1.3,2.1,1.8.6.3,1,.9,1,2.1Z"/>
      <path class="st0" d="M11.1,9.1c.7-1.3,1.2-2.2,1.2-2.2.4-1,.2-1.7-.1-2.1-.5-.6-1.6-2-1.6-2,0,0-.4.8-1.1,2.1.2.2.9,1.4,1.4,2,.3.5.5,1.2.2,2.2Z"/>
      <path class="st0" d="M13.1,5.2c.6-.9,1.2-1.5,1.2-1.5.4-.7.4-1.2.1-1.6-.3-.5-1-1.6-1-1.6,0,0-.4.6-1,1.4,0,.2.5,1.2.8,1.7.2.4.3.9-.1,1.6Z"/>
      <path class="st0" d="M16.7,42.6c-1.2,1.3-4.1,4.2-4.1,4.2,0,0,2,.8,5.1,2,.5-.5,2.9-3,4.1-4.2s2.2-1.5,4.4-1c-2.7-1.1-4.7-1.9-4.7-1.9-2.3-.7-3.8,0-4.8.9Z"/>
      <path class="st0" d="M7.1,12.5c-1.1-.4-3.7-1.4-3.7-1.4,0,0,0,1.5.2,3.6.4.2,2.2,1.2,3.3,1.7.9.3,1.7,1.1,2,2.6-.1-2.1-.1-3.9-.1-3.9-.2-1.5-.9-2.3-1.7-2.6Z"/>
      <path class="st0" d="M9.5,34.1c-1.6.7-5.3,2.4-5.3,2.4,0,0,1.6,1.5,4,3.7.6-.3,3.9-1.8,5.4-2.3,1.2-.5,2.6-.5,4.5.7-2.1-2-3.7-3.4-3.7-3.4-2-1.6-3.5-1.6-4.9-1.1Z"/>
      <path class="st0" d="M9.7,24.9c-.5-2.1-.9-3.5-.9-3.5-.6-1.8-1.6-2.3-2.5-2.5-1.4-.2-4.3-.7-4.3-.7,0,0,.4,1.6,1,3.9.5.1,3,.5,4.2.7.9.1,1.8.6,2.5,2.1Z"/>
      <path class="st0" d="M12.6,31.7c-1.4-2.2-2.3-3.8-2.3-3.8-1.4-1.8-2.7-2.1-4-2-1.6.2-5.2.8-5.2.8,0,0,1.1,1.7,2.6,4.2.6-.1,3.8-.6,5.2-.8,1.2-.2,2.4.2,3.7,1.6Z"/>
    </g>
    <g>
      <path class="st0" d="M162.3,12.6c-.3-1.6-.6-2.7-.6-2.7-.1-1.2.3-1.9.9-2.2.7-.5,2.3-1.6,2.3-1.6,0,0,.2,1.1.5,2.5-.3.2-1.4,1.3-2.1,1.8-.6.4-1,1-1,2.2h0Z"/>
      <path class="st0" d="M161,9.1c-.7-1.3-1.2-2.2-1.2-2.2-.4-1-.2-1.7.1-2.1.5-.6,1.6-2,1.6-2,0,0,.4.9,1.1,2-.2.2-.9,1.5-1.4,2-.2.6-.4,1.3-.2,2.3h0Z"/>
      <path class="st0" d="M159.1,5.2c-.6-.9-1.1-1.5-1.1-1.5-.4-.7-.4-1.2-.1-1.6.3-.5.9-1.6.9-1.6,0,0,.4.6,1,1.4-.1.2-.5,1.2-.8,1.7-.3.4-.3.9.1,1.6Z"/>
      <path class="st0" d="M155.5,42.6c1.2,1.3,4.1,4.2,4.1,4.2,0,0-2,.8-5.1,2-.5-.5-2.9-3-4.1-4.2-1-1-2.2-1.5-4.4-1,2.8-1.1,4.7-1.9,4.7-1.9,2.3-.7,3.8,0,4.8.9h0Z"/>
      <path class="st0" d="M165,12.5c1.1-.4,3.6-1.4,3.6-1.4,0,0-.1,1.5-.2,3.6-.4.2-2.2,1.2-3.3,1.7-.9.3-1.7,1.1-2,2.6.1-2.1.1-3.9.1-3.9.3-1.5,1.1-2.3,1.8-2.6h0Z"/>
      <path class="st0" d="M162.6,34.1c1.6.7,5.3,2.3,5.3,2.3,0,0-1.6,1.5-4,3.7-.6-.3-3.9-1.8-5.4-2.3-1.2-.5-2.6-.5-4.5.7,2.1-2,3.7-3.4,3.7-3.4,2.1-1.5,3.6-1.5,4.9-1Z"/>
      <path class="st0" d="M162.5,24.9c.6-2.1.9-3.5.9-3.5.6-1.8,1.6-2.3,2.5-2.5,1.3-.2,4.2-.7,4.2-.7,0,0-.4,1.6-1,3.9-.5.1-3,.5-4.2.7-.8.1-1.7.6-2.4,2.1Z"/>
      <path class="st0" d="M159.6,31.7c1.4-2.2,2.3-3.8,2.3-3.8,1.4-1.8,2.7-2.1,4-2,1.6.2,5.2.8,5.2.8,0,0-1.1,1.7-2.6,4.2-.6-.1-3.8-.6-5.2-.8-1.2-.2-2.4.2-3.7,1.6Z"/>
    </g>
  </g>
</svg>