<svg width="14" height="14" viewBox="0 0 14 14" fill="none" xmlns="http://www.w3.org/2000/svg">
<path d="M10.8439 3.62015C10.7641 3.57894 10.6865 3.53377 10.6113 3.4848C10.3926 3.34021 10.1921 3.16983 10.014 2.97735C9.56861 2.46769 9.40225 1.95065 9.34098 1.58864H9.34344C9.29225 1.28816 9.31341 1.09375 9.31661 1.09375H7.28782V8.93873C7.28782 9.04405 7.28782 9.14815 7.28339 9.25102C7.28339 9.26382 7.28216 9.27563 7.28142 9.28941C7.28142 9.29507 7.28142 9.30098 7.28019 9.30688C7.28019 9.30836 7.28019 9.30984 7.28019 9.31131C7.2588 9.59279 7.16857 9.8647 7.01744 10.1031C6.8663 10.3415 6.65889 10.5392 6.41345 10.6786C6.15764 10.8241 5.86832 10.9005 5.57402 10.9001C4.62877 10.9001 3.86268 10.1293 3.86268 9.17744C3.86268 8.22555 4.62877 7.45478 5.57402 7.45478C5.75295 7.45462 5.93078 7.48277 6.10091 7.53821L6.10337 5.4725C5.58691 5.40578 5.06222 5.44683 4.56242 5.59304C4.06262 5.73926 3.59854 5.98747 3.19946 6.32201C2.84978 6.62584 2.5558 6.98836 2.33075 7.39326C2.24511 7.54091 1.92199 8.13425 1.88286 9.09721C1.85825 9.64379 2.02239 10.21 2.10065 10.4441V10.449C2.14987 10.5868 2.34059 11.0571 2.65141 11.4536C2.90204 11.7716 3.19815 12.0509 3.53021 12.2826V12.2777L3.53513 12.2826C4.51729 12.9501 5.60626 12.9062 5.60626 12.9062C5.79477 12.8986 6.42624 12.9062 7.14336 12.5664C7.93874 12.1896 8.39155 11.6283 8.39155 11.6283C8.68083 11.2929 8.91085 10.9106 9.07175 10.498C9.25534 10.0154 9.31661 9.43657 9.31661 9.20525V5.04331C9.34122 5.05807 9.66902 5.27488 9.66902 5.27488C9.66902 5.27488 10.1413 5.57758 10.8781 5.7747C11.4067 5.91497 12.1189 5.9445 12.1189 5.9445V3.93047C11.8693 3.95754 11.3626 3.87879 10.8439 3.62015Z" fill="#666666"/>
</svg>
