<?xml version="1.0" encoding="UTF-8"?>
<svg id="Layer_1" xmlns="http://www.w3.org/2000/svg" version="1.1" viewBox="0 0 100 13.6">
  <!-- Generator: Adobe Illustrator 30.2.1, SVG Export Plug-In . SVG Version: 2.1.1 Build 1)  -->
  <defs>
    <style>
      .st0 {
        fill: none;
      }

      .st1 {
        fill: #58595b;
      }

      .st2 {
        fill: #231f20;
      }

      .st3 {
        fill: #d0d2d3;
      }

      .st4 {
        fill: #929497;
      }
    </style>
  </defs>
  <path class="st3" d="M95.6,8.1c-.2-.8-.3-1.7-.4-2.6,0-.9,0-1.8,0-2.6l1.7,2.5-1.3,2.7Z"/>
  <path class="st4" d="M95.3,2.9c.8.3,1.6.6,2.4,1,.8.4,1.6.8,2.3,1.3l-3,.2-1.7-2.5Z"/>
  <path class="st1" d="M100,5.2c-.6.6-1.3,1.1-2.1,1.6-.7.5-1.5.9-2.3,1.3l1.3-2.7,3-.2Z"/>
  <path class="st3" d="M93.1,10.4c.7-.4,1.5-.8,2.4-1.2.8-.3,1.7-.6,2.5-.8l-1.9,2.4-3-.4Z"/>
  <path class="st4" d="M98,8.4c0,.9,0,1.7-.2,2.6-.1.9-.3,1.7-.6,2.6l-1.1-2.8,1.9-2.4Z"/>
  <path class="st1" d="M97.3,13.6c-.7-.4-1.5-.9-2.2-1.5-.7-.5-1.4-1.1-2-1.8l3,.4,1.1,2.8Z"/>
  <path class="st4" d="M90.2,8.6c.6.6,1.3,1.2,1.8,1.9.6.7,1.1,1.4,1.5,2.1l-2.8-1-.5-3Z"/>
  <path class="st1" d="M93.6,12.7c-.8.3-1.7.5-2.6.6-.9.2-1.8.2-2.6.3l2.3-1.9,2.8,1Z"/>
  <path class="st3" d="M88.4,13.6c.2-.8.4-1.7.7-2.5.3-.8.7-1.6,1.1-2.4l.5,3-2.3,1.9Z"/>
  <path class="st1" d="M91,5.4c-.3.8-.8,1.6-1.2,2.3-.5.8-1,1.5-1.6,2.1v-3c.1,0,2.8-1.4,2.8-1.4Z"/>
  <path class="st4" d="M88.2,9.8c-.5-.7-1-1.4-1.4-2.2-.4-.8-.8-1.6-1.1-2.4l2.6,1.6v3Z"/>
  <path class="st3" d="M85.7,5.2c.9,0,1.7-.1,2.6,0,.9,0,1.8.1,2.6.3l-2.7,1.4-2.6-1.6Z"/>
  <path class="st1" d="M94.3,5c-.9,0-1.7-.2-2.6-.5-.9-.2-1.7-.5-2.5-.8l2.9-.8,2.2,2.1Z"/>
  <path class="st3" d="M89.2,3.8c.5-.7,1.1-1.4,1.7-2,.6-.6,1.3-1.2,2-1.8l-.7,2.9-2.9.8Z"/>
  <path class="st4" d="M92.9,0c.4.8.7,1.6.9,2.5.2.9.4,1.7.5,2.6l-2.2-2.1L92.9,0Z"/>
  <g>
    <path class="st2" d="M23,7.3h-2.5v-2.4h2.6c1,0,1.5.4,1.5,1.1s-.5,1.3-1.6,1.3M24.3,7.6c.7-.3,1-1,1-1.5,0-1.2-.7-1.8-2.3-1.8h-3.3v6.5h.7v-2.8h2.6c1.2,0,1.5.2,1.5,1.2,0,1.1.1,1.3.2,1.6h.7c-.2-.3-.3-.8-.3-1.9,0-.6-.3-1.1-.9-1.3"/>
    <path class="st2" d="M3.2,7.1h0c-1.3-.1-2.3-.3-2.3-1.2s.2-.8.7-1c.5-.2,1-.3,1.5-.3s1.2,0,1.6.5c.2.2.3.5.3.8h.7c0-.5-.2-1-.5-1.3-.6-.6-1.5-.7-2.2-.7s-1.9.2-2.4.8c-.3.3-.4.7-.4,1.1,0,1.5,1.6,1.7,2.8,1.8.6,0,1.1.1,1.5.3.4.2.6.5.6,1s-.1.6-.3.8c-.5.5-1.5.5-1.8.5-.9,0-1.6-.2-2-.6-.3-.3-.4-.6-.4-1.1H0c0,.6.2,1.1.6,1.5.5.5,1.4.8,2.5.8s2.8-.1,2.8-1.9-1.4-1.7-2.7-1.8"/>
    <path class="st2" d="M13.7,8.1l1.4-3,1.4,3h-2.7ZM14.8,4.3l-3,6.5h.7l.9-2h3.3l.9,2h.8l-3-6.5h-.6Z"/>
    <polygon class="st2" points="12.1 4.3 6.4 4.3 6.4 4.9 8.9 4.9 8.9 10.8 9.6 10.8 9.6 4.9 12.1 4.9 12.1 4.3"/>
    <path class="st2" d="M31.4,8.1l1.4-3,1.4,3h-2.7ZM32.4,4.3l-3,6.5h.7l.9-2h3.3l.9,2h.7l-3-6.5h-.6Z"/>
    <polygon class="st2" points="64.4 9.7 59.7 4.3 59 4.3 59 10.8 59.7 10.8 59.7 5.3 64.4 10.8 65.1 10.8 65.1 4.3 64.4 4.3 64.4 9.7"/>
    <path class="st2" d="M52.8,8.1l1.4-3,1.4,3h-2.7ZM53.9,4.3l-3,6.5h.7l.9-2h3.3l.9,2h.7l-3-6.5h-.6Z"/>
    <polygon class="st2" points="38.1 4.3 37.4 4.3 37.4 10.8 42.1 10.8 42.1 10.1 38.1 10.1 38.1 4.3"/>
    <polygon class="st2" points="75.9 10.1 75.9 7.7 80.2 7.7 80.2 7.1 75.9 7.1 75.9 4.9 80.5 4.9 80.5 4.3 75.2 4.3 75.2 10.8 80.5 10.8 80.5 10.1 75.9 10.1"/>
    <rect class="st2" x="48.6" y="4.3" width=".7" height="6.5"/>
    <polygon class="st2" points="43.8 4.3 43.1 4.3 43.1 10.8 47.8 10.8 47.8 10.1 43.8 10.1 43.8 4.3"/>
    <path class="st2" d="M70.2,4.8c1.3,0,2.3.7,2.6,1.9h.7c-.2-1.4-1.4-2.6-3.3-2.6s-3.5,1.3-3.5,3.4h0c0,2.1,1.4,3.4,3.5,3.4s3.1-1.2,3.3-2.6h-.7c-.3,1.2-1.2,1.9-2.6,1.9-2,0-2.8-1.4-2.8-2.8,0-1.3.8-2.8,2.8-2.8"/>
  </g>
  <circle class="st0" cx="92.9" cy="7.5" r="2.6"/>
</svg>